<svg id="Layer_1" enable-background="new 0 0 512 512" height="512" viewBox="0 0 512 512" width="512" xmlns="http://www.w3.org/2000/svg"><g><g><g><g><path d="m474.5 392.962h-437c-16.569 0-30-13.431-30-30v-282.417c0-16.569 13.431-30 30-30h437c16.569 0 30 13.431 30 30v282.417c0 16.568-13.431 30-30 30z" fill="#506d90"/><path d="m474.5 50.545h-30c16.569 0 30 13.431 30 30v282.417c0 16.569-13.431 30-30 30h30c16.569 0 30-13.431 30-30v-282.417c0-16.569-13.431-30-30-30z" fill="#455f7e"/><path d="m37.5 343.962v-259.417c0-2.209 1.791-4 4-4h429c2.209 0 4 1.791 4 4v259.417c0 2.209-1.791 4-4 4h-429c-2.209 0-4-1.791-4-4z" fill="#ecf5ff"/><path d="m37.5 343.962v-259.417c0-2.209 1.791-4 4-4h429c2.209 0 4 1.791 4 4v259.417c0 2.209-1.791 4-4 4h-429c-2.209 0-4-1.791-4-4z" fill="#ecf5ff"/><path d="m470.5 80.545h-30c2.209 0 4 1.791 4 4v259.417c0 2.209-1.791 4-4 4h30c2.209 0 4-1.791 4-4v-259.417c0-2.21-1.791-4-4-4z" fill="#dbeafd"/><path d="m305.543 504.5h-99.086l15-111.538h69.086z" fill="#455f7e"/><path d="m290.543 392.962h-30l15 111.538h30z" fill="#405972"/><path d="m320.895 456.277 10.563 38.085c1.414 5.097-2.42 10.138-7.709 10.138h-135.497c-5.289 0-9.123-5.041-7.709-10.138l10.563-38.085c.961-3.464 4.114-5.862 7.709-5.862h114.372c3.594 0 6.747 2.397 7.708 5.862z" fill="#506d90"/><path d="m331.458 494.362-10.563-38.085c-.961-3.464-4.114-5.862-7.709-5.862h-30c3.595 0 6.748 2.398 7.709 5.862l10.563 38.085c1.414 5.097-2.42 10.138-7.709 10.138h30c5.289 0 9.122-5.041 7.709-10.138z" fill="#455f7e"/></g><path d="m97.01 67.5h317.98v280.462h-317.98z" fill="#f7f6f7"/><path d="m384.99 67.5h30v280.462h-30z" fill="#e2d8ec"/><g><g><g><path d="m336.037 287.962h-160.074c-8.491 0-15.374-6.883-15.374-15.374v-159.714c0-8.491 6.883-15.374 15.374-15.374h160.073c8.491 0 15.374 6.883 15.374 15.374v159.713c.001 8.492-6.882 15.375-15.373 15.375z" fill="#bfe69f"/></g></g><path d="m336.037 97.5h-30c8.491 0 15.374 6.883 15.374 15.374v159.713c0 8.491-6.883 15.374-15.374 15.374h30c8.491 0 15.374-6.883 15.374-15.374v-159.713c0-8.491-6.883-15.374-15.374-15.374z" fill="#a4d9a6"/></g><path d="m387.99 7.5h-278.98c-6.627 0-12 5.373-12 12v48h317.98l-15-48c0-6.627-5.373-12-12-12z" fill="#455f7e"/><path d="m402.99 7.5h-30c6.627 0 12 5.373 12 12v48h30v-48c0-6.627-5.373-12-12-12z" fill="#405972"/></g></g><path d="m157.01 30c-4.142 0-7.5 3.358-7.5 7.5s3.358 7.5 7.5 7.5 7.5-3.358 7.5-7.5-3.358-7.5-7.5-7.5zm30 0c-4.142 0-7.5 3.358-7.5 7.5s3.358 7.5 7.5 7.5 7.5-3.358 7.5-7.5-3.358-7.5-7.5-7.5zm-60 0c-4.142 0-7.5 3.358-7.5 7.5s3.358 7.5 7.5 7.5 7.5-3.358 7.5-7.5-3.358-7.5-7.5-7.5zm84.099 193.86c2.929 2.928 7.678 2.929 10.606 0 2.929-2.93 2.929-7.678 0-10.607l-20.522-20.521 20.522-20.521c2.929-2.93 2.929-7.678 0-10.607-2.928-2.928-7.677-2.928-10.606 0l-22.291 22.29c-4.872 4.874-4.872 12.803.001 17.678zm173.881 86.602h-257.98c-4.142 0-7.5 3.357-7.5 7.5s3.358 7.5 7.5 7.5h257.98c4.142 0 7.5-3.357 7.5-7.5s-3.358-7.5-7.5-7.5zm89.51-267.422h-52.01v-23.54c0-10.752-8.748-19.5-19.5-19.5h-293.98c-10.752 0-19.5 8.748-19.5 19.5v23.54h-52.01c-20.678 0-37.5 16.822-37.5 37.5v282.42c0 20.678 16.822 37.5 37.5 37.5h64.569c4.142 0 7.5-3.357 7.5-7.5s-3.358-7.5-7.5-7.5h-64.569c-12.407 0-22.5-10.094-22.5-22.5v-282.42c0-12.406 10.093-22.5 22.5-22.5h52.01v15h-48.01c-6.341 0-11.5 5.159-11.5 11.5v259.42c0 6.341 5.159 11.5 11.5 11.5h429c6.341 0 11.5-5.159 11.5-11.5v-259.42c0-6.341-5.159-11.5-11.5-11.5h-48.01v-15h52.01c12.407 0 22.5 10.094 22.5 22.5v282.42c0 12.406-10.093 22.5-22.5 22.5h-337.431c-4.142 0-7.5 3.357-7.5 7.5s3.358 7.5 7.5 7.5h75.814l-5.712 42.455h-8.357c-6.939 0-13.081 4.67-14.936 11.357l-10.563 38.085c-1.306 4.707-.358 9.637 2.598 13.524 2.957 3.889 7.454 6.118 12.338 6.118h135.497c4.885 0 9.382-2.229 12.338-6.118 2.956-3.888 3.903-8.817 2.598-13.523l-10.563-38.086c0-.001 0-.001 0-.001-1.855-6.687-7.997-11.356-14.936-11.356h-8.357l-5.712-42.455h175.384c20.678 0 37.5-16.822 37.5-37.5v-282.42c0-20.678-16.822-37.5-37.5-37.5zm-384.99 297.42h-44.51v-252.42h44.51zm15-320.96c0-2.481 2.019-4.5 4.5-4.5h293.98c2.481 0 4.5 2.019 4.5 4.5v40.5h-302.98zm362.49 68.54v252.42h-44.51v-198.596c0-4.143-3.358-7.5-7.5-7.5s-7.5 3.357-7.5 7.5v198.596h-302.98v-265.46h302.98v31.864c0 4.143 3.358 7.5 7.5 7.5s7.5-3.357 7.5-7.5v-18.824zm-238.981 312.42h55.963l5.712 42.455h-67.388zm85.167 57.455c.224 0 .422.15.482.365l10.563 38.087c.021.077.066.238-.084.436s-.324.197-.398.197h-135.498c-.074 0-.248 0-.398-.197s-.105-.358-.084-.437l10.563-38.085c.06-.216.258-.366.482-.366zm-73.407-237.293c3.528 2.037 8.154.88 10.245-2.745l24.706-42.792c2.071-3.587.842-8.174-2.745-10.245-3.587-2.07-8.174-.843-10.245 2.745l-24.706 42.792c-2.072 3.587-.843 8.174 2.745 10.245zm50.505 3.238c2.928 2.929 7.677 2.928 10.606 0l22.291-22.291c4.872-4.874 4.872-12.803-.001-17.678l-22.29-22.289c-2.929-2.928-7.678-2.928-10.606 0-2.929 2.93-2.929 7.678 0 10.607l20.522 20.521-20.522 20.521c-2.929 2.932-2.929 7.68 0 10.609zm-114.321 71.602h160.073c12.613 0 22.875-10.262 22.875-22.874v-159.714c0-12.612-10.261-22.874-22.875-22.874h-160.073c-12.613 0-22.875 10.262-22.875 22.874v159.714c.001 12.612 10.262 22.874 22.875 22.874zm-7.874-182.588c0-4.342 3.533-7.874 7.875-7.874h160.073c4.342 0 7.875 3.532 7.875 7.874v159.714c0 4.342-3.533 7.874-7.875 7.874h-160.074c-4.342 0-7.875-3.532-7.875-7.874v-159.714z"/></g></svg>