<?xml version="1.0" encoding="utf-8"?>
<!-- Generator: Adobe Illustrator 15.1.0, SVG Export Plug-In . SVG Version: 6.00 Build 0)  -->
<!DOCTYPE svg PUBLIC "-//W3C//DTD SVG 1.1//EN" "http://www.w3.org/Graphics/SVG/1.1/DTD/svg11.dtd">
<svg version="1.1" id="Layer_1" xmlns="http://www.w3.org/2000/svg" xmlns:xlink="http://www.w3.org/1999/xlink" x="0px" y="0px"
	 width="864px" height="864px" viewBox="0 0 864 864" enable-background="new 0 0 864 864" xml:space="preserve">
<path fill="#F176AD" d="M694.836,364.043c-88.129-77.009-176.26-154.017-264.391-231.023
	C541.202,95.203,651.958,57.384,762.714,19.563C751.401,76.977,706.149,306.63,694.836,364.043z"/>
<path fill="#FCEC45" d="M728.339,441.322L444.994,193.738L801.08,72.144L728.339,441.322z M473.509,199.357l245.436,214.462
	l63.011-319.787L473.509,199.357z"/>
<path fill="#F176AD" d="M85.655,240.587c-6.666-74.685-13.333-149.37-20.001-224.055c68.012,31.57,136.025,63.139,204.039,94.707
	C239.02,132.797,116.328,219.029,85.655,240.587z"/>
<path fill="#FCEC45" d="M66.922,291.195L45.485,51.077l218.668,101.494L66.922,291.195z M56.193,66.313l18.566,207.99
	l170.845-120.076L56.193,66.313z"/>
<polygon fill="#F176AD" points="68.217,757.936 48.215,533.881 252.254,628.588 "/>
<path fill="#FCEC45" d="M49.484,808.544L28.046,568.427l218.668,101.492L49.484,808.544z M38.755,583.662l18.566,207.99
	l170.845-120.075L38.755,583.662z"/>
<path fill="#FCEC45" d="M529.397,651.178c7.506-56.014,15.011-112.027,22.517-168.041
	c89.511,69.011,179.022,138.021,268.534,207.031c-104.521,43.016-209.043,86.031-313.564,129.048
	C514.389,763.203,521.893,707.19,529.397,651.178L529.397,651.178z"/>
<path fill="#F176AD" d="M515.044,410.629l287.79,221.872L466.787,770.803L515.044,410.629z M775.007,628.774L525.729,436.58
	l-41.804,311.989L775.007,628.774z"/>
<path fill="#FCEC45" d="M309.85,297.391c-20.379,72.425-40.759,144.851-61.138,217.275
	C196.18,460.803,143.646,406.94,91.111,353.079C127.567,343.798,273.394,306.672,309.85,297.391z"/>
<path fill="#F176AD" d="M345.465,256.604l-65.515,232.854L111.047,316.291L345.465,256.604z M275.338,471.35l56.758-201.701
	l-203.063,51.7L275.338,471.35z"/>
<path fill="#F176AD" d="M397.174,17.863c-10.113,35.944-20.227,71.888-30.342,107.831C340.761,98.963,314.69,72.231,288.619,45.5
	C306.074,41.057,379.719,22.308,397.174,17.863z"/>
<path fill="#F176AD" d="M470.438,362.553c-31.644-0.096-63.288-0.193-94.931-0.29c15.907-27.354,31.811-54.71,47.712-82.067
	C430.746,293.324,462.911,349.425,470.438,362.553z"/>
<path fill="#F176AD" d="M243.569,824.869c-28.821-13.063-57.643-26.127-86.464-39.189c25.725-18.427,51.449-36.854,77.171-55.284
	C235.757,745.454,242.087,809.81,243.569,824.869z"/>
<path fill="#FCEC45" d="M540.157,56.709c-28.106,14.536-56.213,29.071-84.32,43.605c1.469-31.609,2.933-63.219,4.394-94.829
	C472.971,13.65,527.417,48.543,540.157,56.709z"/>
<path fill="#FCEC45" d="M834.135,457.538c-30.663,7.813-61.327,15.621-91.992,23.428c8.569-30.461,17.139-60.922,25.707-91.383
	C778.415,400.414,823.568,446.705,834.135,457.538z"/>
<path fill="#FCEC45" d="M820.289,834.832c-29.733-10.823-59.468-21.646-89.202-32.467c24.24-20.34,48.479-40.681,72.718-61.022
	C806.433,756.244,817.661,819.929,820.289,834.832z"/>
<path fill="#FCEC45" d="M124.535,434.548c-28.106,14.537-56.213,29.071-84.321,43.604c1.468-31.609,2.933-63.219,4.394-94.828
	C57.348,391.489,111.794,426.382,124.535,434.548z"/>
<path fill="#FCEC45" d="M460.176,608.583c-44.168-2.439-88.336-4.877-132.504-7.312c24.194-37.032,48.387-74.066,72.579-111.101
	C410.239,509.905,450.188,588.847,460.176,608.583z"/>
<path fill="#FCEC45" d="M378.796,245.276c-44.168-2.439-88.337-4.876-132.505-7.312c24.195-37.033,48.388-74.066,72.58-111.101
	C328.858,146.599,368.809,225.541,378.796,245.276z"/>
<path fill="#F176AD" d="M352.306,791.462c-19.19-43.059-38.381-86.117-57.573-129.175c46.885,4.91,93.771,9.817,140.656,14.722
	C421.542,696.085,366.153,772.387,352.306,791.462z"/>
</svg>
