<?xml version="1.0" encoding="utf-8"?>
<!-- Generator: Adobe Illustrator 21.1.0, SVG Export Plug-In . SVG Version: 6.00 Build 0)  -->
<svg version="1.1" id="Calque_1" xmlns="http://www.w3.org/2000/svg" xmlns:xlink="http://www.w3.org/1999/xlink" x="0px" y="0px"
	 viewBox="0 0 432 432" style="enable-background:new 0 0 432 432;" xml:space="preserve">
<style type="text/css">
	.st0{fill:#1A1A1A;}
	.st1{fill:#F486A1;}
	.st2{fill:#CCCCCC;}
	.st3{fill:#3F3531;}
	.st4{fill:#BC4662;}
	.st5{fill:#6BAE3D;}
	.st6{fill:#F8982A;}
	.st7{fill:#BA61BB;}
	.st8{fill:#16BACB;}
	.st9{fill:#C4DA6D;}
	.st10{fill:#5C62B8;}
	.st11{fill:#8F99F2;}
	.st12{fill:#ED5F7D;}
	.st13{fill:#5A9100;}
	.st14{fill:#E2B8E0;}
	.st15{fill:#F8BE74;}
	.st16{fill:#43934A;}
	.st17{fill:#F55D00;}
	.st18{fill:#456F01;}
	.st19{fill:#333333;}
	.st20{fill:#9BE0ED;}
	.st21{fill:#A67C52;}
	.st22{fill:#42210B;}
	.st23{fill:#999999;}
	.st24{fill:#8F1A53;}
	.st25{fill:#E38BA4;}
	.st26{fill:#4D4D4D;}
	.st27{fill:#DF5376;}
	.st28{fill:#E5445E;}
	.st29{fill:#EDBAC9;}
	.st30{fill:#E7D3D5;}
	.st31{fill:#C1272D;}
	.st32{fill:#BC2A34;}
	.st33{fill:#AB827E;}
	.st34{fill:#75614D;}
	.st35{fill:#4F4A41;}
	.st36{fill:#7E7163;}
</style>
<g>
	<g>
		<g>
			<path class="st13" d="M217.1,282.9c-0.6-3.3-1.5-6.4-2.5-9.6c-0.8-2.3-1.9-4.4-3.1-6.4c-4.2-6.6-9.2-12.6-14.9-18
				c-2.2-2.1-4.3-4.3-6.5-6.5c-0.2-0.2-0.4-0.4-0.6-0.6c-1.7-1.9-2.3-4.1-1.8-6.5c0.5-2.5,1.6-4.8,3.1-6.8c1.4-1.9,3.1-3.6,4.9-5.1
				c0.8-0.7,1.6-1.4,2.4-2c0.9-0.7,1.6-1.6,2.3-2.4c0.9-1.1,1.3-2.4,1-3.8c0-0.1,0-0.3,0-0.4c0-0.6,0.4-1,1-0.8
				c0.4,0.1,0.7,0.2,1.1,0.4c0.9,0.5,1.8,1,2.6,1.5c1.8,1.3,3.6,2.6,5.4,4c1.9,1.4,3.8,2.8,5.7,4.3c0.3,0.2,0.6,0.5,0.9,0.8
				c0.3,0.2,0.5,0.5,0.7,0.8c0.6,0.8,0.4,1.6-0.5,2.1c-0.6,0.3-1.2,0.4-1.8,0.6c-1,0.3-2.1,0.5-3.1,0.7c-0.2,0-0.4,0.1-0.7,0.2
				c0.3,0.3,0.5,0.6,0.8,0.8c1.5,1.5,3.1,3,4.6,4.5c2.6,2.6,4.8,5.6,6.9,8.5c0.8,1.1,1.7,2.3,2.5,3.4c0.2,0.3,0.4,0.6,0.6,0.9
				c0.7,1.2,0.4,2-0.9,2.4c-0.6,0.2-1.3,0.3-1.9,0.5c-0.5,0.1-1.1,0.2-1.7,0.3c-0.1,0-0.2,0.1-0.4,0.1c0.2,0.4,0.4,0.7,0.6,1
				c1.2,1.9,2.5,3.8,3.6,5.8c2.3,3.8,4.3,7.8,6.3,11.8c0.2,0.5,0.4,1,0.5,1.5c0.2,0.9-0.3,1.5-1.2,1.4c-0.6-0.1-1.1-0.2-1.7-0.4
				c-0.9-0.3-1.8-0.5-2.7-0.8c-0.1,0-0.3-0.1-0.5-0.1c0.1,0.3,0.1,0.6,0.2,0.8c0.8,2.6,1.4,5.2,1.8,7.9c0.4,2.9,0.7,5.8,0.7,8.7
				c0,3.3-0.2,6.5-0.2,9.8c0,0.8,0,1.7,0.1,2.5c0,0.2,0,0.4,0,0.7c0,0.5-0.3,0.7-0.7,0.7c-0.1,0-0.2,0-0.4,0
				c-3.7-0.4-7.2-1.4-10.6-2.8c-1.3-0.6-2.7-1.1-4-1.7c-3.8-1.9-6.8-4.7-9.1-8.2c-0.7-1.1-1.4-2.2-2-3.4c-0.1-0.2-0.3-0.4-0.5-0.7
				c-0.2,0.3-0.2,0.7-0.2,1c0,1.2,0.1,2.4,0.2,3.6c0,0.6,0.1,1.1,0.2,1.7c0,1.1-0.6,1.7-1.7,1.7c-0.6,0-1.2-0.3-1.8-0.6
				c-1.1-0.6-2.2-1.4-3.1-2.2c-1.6-1.4-3-3-4.3-4.6c-1.2-1.5-2.4-2.9-3.6-4.4c-0.2-0.2-0.4-0.4-0.7-0.7c-0.2,0.5-0.3,0.8-0.4,1.2
				c-0.3,1.2-0.5,2.4-0.9,3.6c-0.1,0.6-0.3,1.1-0.6,1.6c-0.5,1-1.4,1.4-2.4,1c-0.5-0.2-1-0.4-1.4-0.7c-0.6-0.4-1.1-0.9-1.6-1.5
				c-1.8-1.9-3.4-4-4.7-6.3c-0.9-1.5-1.8-3-2.6-4.6c-0.2-0.4-0.5-0.8-0.8-1.2c-0.1,0.2-0.3,0.3-0.3,0.5c-0.2,0.3-0.3,0.7-0.5,1
				c-0.2,0.3-0.3,0.6-0.5,0.9c-0.7,0.9-1.5,1-2.3,0.3c-0.5-0.5-0.9-1-1.3-1.6c-1.1-1.9-2-4-2.6-6.2c-0.9-3.6-1.5-7.3-1.6-11
				c0-0.7,0-1.3,0-2c0-0.7,0.3-1.1,0.9-1.4c1.6-0.6,3.1-1.3,4.7-1.9c2.4-0.9,4.7-2,6.7-3.6c1-0.8,1.9-1.7,2.5-2.8
				c0.5-0.9,1.1-1.7,1.6-2.6c0.1-0.2,0.2-0.3,0.3-0.5c0.4-0.5,0.9-0.6,1.4-0.3c0.4,0.2,0.7,0.5,1,0.8c1,1,1.8,2,2.8,2.9
				c0.8,0.8,1.7,1.5,2.6,2.1c1,0.7,2,1.5,3.1,2.1c5.3,3.4,9.8,7.7,13.9,12.5c4.9,5.8,8.5,12.4,11.3,19.4
				C216.8,282.4,216.9,282.6,217.1,282.9z"/>
			<path class="st13" d="M73.4,147.1c-0.2-0.2-0.4-0.3-0.6-0.4c-2.8-1.7-5.2-4-7.1-6.6c-1.6-2.2-3.1-4.6-4.5-7
				c-0.1-0.2-0.2-0.5-0.3-0.7c-0.2-0.5,0-1,0.5-1.2c0.3-0.1,0.6-0.2,0.9-0.3c1.5-0.4,3-0.8,4.5-1.3c0.1,0,0.1-0.1,0.2-0.1
				c-0.2-0.2-0.4-0.3-0.5-0.5c-1.3-1-2.5-2.1-3.6-3.4c-2-2.2-3.3-4.8-4.5-7.5c-1.2-2.9-2.1-5.9-3.1-8.9c-0.4-1.3-0.8-2.5-1.2-3.8
				c-0.1-0.3-0.2-0.6-0.2-0.9c-0.1-0.6,0.2-1,0.8-1.2c0.3-0.1,0.7-0.1,1-0.1c3.6-0.2,7.3-0.3,10.9-0.2c2.6,0.1,5.2,0.5,7.7,1.6
				c3.5,1.6,6.2,4.2,8.2,7.5c0.3,0.6,0.7,1.2,1,1.8c0.1,0.2,0.2,0.3,0.3,0.6c0.1-0.2,0.2-0.4,0.3-0.5c0.4-1.3,0.7-2.5,1.1-3.8
				c0.1-0.3,0.1-0.6,0.2-0.9c0.2-0.7,0.6-1,1.4-0.9c0.3,0,0.5,0.1,0.8,0.2c0.9,0.3,1.7,0.7,2.5,1.2c2.4,1.5,4.5,3.4,6.2,5.6
				c0.6,0.8,1.2,1.6,1.9,2.3c0.1,0.2,0.3,0.3,0.5,0.5c0.2-0.4,0.3-0.7,0.4-1c0.4-1.4,0.7-2.7,1.1-4.1c0.1-0.3,0.1-0.5,0.2-0.8
				c0.3-0.7,0.7-1,1.4-0.9c0.4,0,0.8,0.2,1.1,0.3c0.6,0.3,1.3,0.7,1.9,1.1c1.2,0.8,2.4,1.8,3.4,2.9c4,4.2,6.7,9.1,8.1,14.7
				c0.4,1.7,0.6,3.5,0.6,5.3c0,1.1,0,2.2,0,3.2c0,0.3,0,0.5-0.1,0.8c0,0.2-0.2,0.4-0.4,0.4c-0.2,0-0.4-0.1-0.5-0.3
				c-1.2-2.3-3.3-3.5-5.4-4.7c-2.1-1.2-4.5-1.7-6.9-2c-2.9-0.4-5.9-0.7-8.8-1.1c-4-0.6-7.9-1.5-11.5-3.3c-4-2.1-7.6-4.7-10.4-8.2
				c-0.2-0.2-0.4-0.4-0.6-0.6c0,0.1,0.1,0.2,0.1,0.3c2.5,4.7,5.8,8.5,10.4,11.3c2,1.2,4.1,1.9,6.3,2.5c2.4,0.7,4.9,1.3,7.3,2.1
				c4.3,1.4,8.2,3.5,11.6,6.5c0.4,0.3,0.8,0.6,1.2,1c0.6,0.5,0.5,1-0.1,1.4c-0.2,0.1-0.4,0.2-0.5,0.2c-2.5,0.9-5,1.2-7.6,1
				c-1.1-0.1-2.2-0.4-3.3-0.8c-0.5-0.2-0.9-0.3-1.4-0.5c-0.1,0-0.3-0.1-0.5-0.1c0,0.4-0.1,0.8-0.1,1.2c0,1.6,0.1,3.1,0.1,4.7
				c0.1,1.7,0.1,3.4,0.2,5.1c0.1,1.3,0.2,2.6,0.2,3.9c0,0.4,0,0.9-0.1,1.3c-0.1,0.6-0.5,0.9-1,1.1c-0.7,0.2-1.4,0.3-2.1,0
				c-1.1-0.3-2.2-0.4-3.3-0.5c-5.8-0.6-11-2.7-15.6-6.3c-1.5-1.2-2.9-2.3-4.4-3.5c-0.3-0.2-0.5-0.4-0.7-0.7
				c-0.5-0.6-0.5-1.3,0.1-1.8c0.3-0.3,0.7-0.6,1.1-0.8c0.8-0.4,1.6-0.8,2.5-1.2C73,147.3,73.2,147.2,73.4,147.1z"/>
			<path class="st13" d="M153.8,277.6c0.1,0.4,0.1,0.6,0.2,0.9c0.3,1.5,0.6,3.1,0.8,4.6c0.4,2.8,0,5.5-1.2,8.1
				c-1.1,2.6-2.6,4.9-4.6,6.9c-1,1-2,2.1-3,3.1c-0.2,0.2-0.5,0.5-0.7,0.6c-0.4,0.3-0.9,0.2-1.2-0.2c-0.2-0.2-0.3-0.4-0.4-0.6
				c-0.3-0.7-0.7-1.3-1-2c-1.5-3.1-3.4-6.1-5.6-8.8c-1-1.2-2-2.5-2.9-3.8c-0.9-1.3-1.6-2.7-2.2-4.2c-0.8-2-0.9-4.1-0.8-6.2
				c0-0.6,0.1-1.1,0.1-1.8c-0.3,0.2-0.4,0.2-0.6,0.4c-0.7,0.5-1.4,1-2.1,1.4c-0.5,0.3-0.9,0.5-1.4,0.7c-0.7,0.2-1.3-0.1-1.6-0.7
				c-0.2-0.4-0.3-0.8-0.4-1.2c-0.4-2.6-0.9-5.3-0.9-8c-0.1-5,0.5-9.9,1.9-14.6c0.1-0.4,0.3-0.8,0.5-1.2c0.2-0.5,0.6-0.9,1.1-1.3
				c0.7-0.5,1.4-0.5,2,0c0.4,0.3,0.7,0.6,1,1c0.8,0.9,1.6,1.8,2.4,2.7c1.3,1.4,2.7,2.7,4.2,3.8c0.5,0.4,1,0.7,1.4,1.1
				c1.5,1.2,2.2,2.8,2.2,4.7c0,1.4-0.1,2.8-0.1,4.2c-0.1,3.4,0,6.8,0.5,10.1c0.2,1.9,0.6,3.8,1.3,5.6c0.3,0.8,0.8,1.6,1.2,2.5
				c0,0.1,0.1,0.2,0.2,0.2c0-0.1,0-0.3-0.1-0.4c-0.3-1.5-0.7-3-0.9-4.4c-0.5-3-0.6-6-0.4-9c0.2-2.7,0.4-5.4,0.7-8.2
				c0.1-0.7,0.2-1.3,0.3-2c0.3-1.8,1.3-3.1,2.6-4.2c1.7-1.4,3.5-2.3,5.7-2.6c1.6-0.2,3.2,0,4.8,0.5c0.7,0.3,1.2,0.7,1.4,1.5
				c0.6,1.8,1.3,3.6,1.8,5.5c0.6,2.8,0.6,5.7,0.3,8.5c-0.3,2.4-0.7,4.7-1.5,6.9c-0.2,0.5-0.4,1.1-0.6,1.6c-0.4,0.8-1,0.9-1.7,0.3
				c-0.7-0.6-1.4-1.3-2.1-1.9C154.2,277.9,154,277.8,153.8,277.6z"/>
		</g>
		<g>
			<path class="st31" d="M115.5,144.4c0.1-0.4,0.2-0.8,0.3-1.1c0.4-0.7,0.7-1.4,1.2-2.1c1.1-1.6,2.5-3,4.1-4.1
				c1.6-1.1,3.2-2.1,4.9-3c3.4-1.8,6.6-3.9,9.5-6.4c0.7-0.6,1.5-1.2,2.2-1.7c1.4-1,2.2-0.9,3.4,0.3c0.1,0.1,0.3,0.3,0.4,0.4
				c2,2.4,4.6,4,7.4,5.2c1.8,0.7,3.6,1.3,5.4,1.9c2.5,0.8,4.7,2.2,6.5,4.1c1,1,2,2,3.1,2.9c1.2,1,2.6,1.7,4.2,1.9
				c0.9,0.1,1.9,0,2.8-0.2c1.1-0.3,2.2-0.7,3.3-1.1c0.3-0.1,0.6-0.2,0.9-0.3c0.8-0.1,1.3,0.1,1.4,0.9c0.1,0.6,0.2,1.2,0.2,1.8
				c0.1,0.8,0.1,1.6,0.1,2.4c0.1,1.6,0.8,3,2,4.2c0.8,0.8,1.7,1.5,2.7,2.1c1.4,0.8,2.9,1.6,4.3,2.5c1.4,0.8,2.8,1.7,4.2,2.5
				c2.4,1.5,4.4,3.4,6,5.6c0.8,1,1.5,2,2.2,3c2.2,3.1,4.7,5.8,7.7,8.1c0.3,0.2,0.6,0.5,0.8,0.8c0.7,0.7,0.8,1.5,0.4,2.4
				c-0.1,0.2-0.1,0.3-0.2,0.5c-1.2,2.2-2,4.6-2.5,7.1c-0.6,2.9-1.3,5.7-2.3,8.5c-0.5,1.5-1.1,3-1.9,4.4c-0.9,1.6-2,3.1-3.4,4.4
				c-0.4,0.3-0.8,0.6-1.2,0.9c-1,0.5-1.9,0.3-2.5-0.7c-0.3-0.5-0.6-1.1-0.8-1.7c-0.4-1.5-0.9-3.1-1.2-4.6c-0.5-2.6-1-5.1-1.8-7.6
				c-0.7-2.2-1.6-4.3-2.9-6.2c-0.2-0.3-0.4-0.6-0.6-0.9c-1.7-2.5-4.1-4-7-4.7c-1.7-0.4-3.4-0.6-5.1-0.7c-4.6-0.3-8.7-2.1-12-5.3
				c-1.6-1.6-3.2-3.3-4.7-5c-2.5-2.8-5-5.7-7.8-8.4c-2.2-2.1-4.5-4-7-5.8c-4.2-3-8.9-4.9-13.9-6.1c-2.5-0.6-5-1-7.6-0.8
				c-1.3,0.1-2.6,0.3-3.9,0.6c-0.1,0-0.2,0.1-0.3,0.1C115.9,145.6,115.5,145.3,115.5,144.4z"/>
			<path class="st31" d="M113.6,234.7c0.3-3.7-0.4-6.9-1.6-10c-0.8-2-1.5-4-2.2-6.1c-0.9-2.4-1.3-4.9-1.5-7.4
				c-0.1-1.1-0.2-2.2,0-3.3c0.1-0.8,0.3-1.5,1-2c0.6-0.4,1.2-0.5,1.7-0.1c0.5,0.4,1,0.8,1.5,1.2c1.3,1.3,2.6,2.6,3.8,3.9
				c2.3,2.3,4.9,4,8,5.1c1,0.3,1.9,0.7,2.9,1c1.2,0.3,2.4,0.5,3.6,0.7c2.1,0.4,4.1,0.6,6.2,1c2.6,0.5,5.1,1.4,7.5,2.4
				c2.6,1.1,5.1,2.2,7.7,3.2c3.1,1.2,6.4,1.8,9.8,1.9c3.3,0,6.3-0.7,9.2-2.1c3.6-1.7,6.7-4.2,9.3-7.2c1.3-1.6,2.3-3.3,3.2-5.1
				c0.8-1.6,1.5-3.1,2.3-4.7c0.4-0.9,0.9-1.7,1.4-2.5c0.2-0.3,0.4-0.6,0.7-0.9c0.6-0.6,1.3-0.7,1.9-0.1c0.4,0.3,0.7,0.7,0.9,1.2
				c0.3,0.5,0.5,1.1,0.7,1.6c0.4,1.1,0.9,2.1,1.3,3.2c0.8,2,1.9,3.8,3.3,5.4c0.2,0.2,0.5,0.5,0.7,0.8c0.5,0.6,0.5,1.2-0.1,1.8
				c-0.2,0.2-0.4,0.4-0.7,0.5c-0.4,0.2-0.7,0.5-1.1,0.7c-3.8,2-6.8,4.9-9.1,8.5c-1.5,2.2-2.7,4.5-3.8,7c-1.1,2.4-2.3,4.8-3.8,7.1
				c-1.1,1.6-2.3,3.2-3.7,4.6c-0.4,0.4-0.9,0.8-1.3,1.2c-2.7,2.2-5.7,3.9-9.1,4.9c-1.8,0.5-3.7,0.7-5.6,0.9
				c-2.1,0.2-4.2,0.3-6.3,0.5c-2.3,0.2-4.6,0.7-6.7,1.6c-0.7,0.3-1.4,0.6-2.2,0.9c-0.3,0.1-0.7,0.3-1,0.3c-0.9,0.2-1.7,0.1-2.4-0.6
				c-0.3-0.3-0.6-0.6-0.9-0.9c-0.4-0.5-0.7-0.9-1-1.4c-1.2-1.7-2.6-3.1-4.3-4.3c-0.5-0.3-0.9-0.7-1.4-1c-2-1.3-3.6-3-5-4.8
				c-0.5-0.7-1.1-1.4-1.7-2c-0.5-0.6-1.1-0.9-1.8-0.7c-0.9,0.2-1.9,0.4-2.8,0.5c-1,0.2-1.9,0.4-2.9,0.6c-1.7,0.2-4-0.7-4.3-3.3
				C113.6,237,113.6,235.6,113.6,234.7z"/>
			<path class="st31" d="M122.9,151.9c0,0.7-0.3,1.7-0.7,2.6c-0.6,1.4-1.5,2.7-2.4,4c-1,1.5-2,2.9-2.9,4.5c-1.3,2.1-2.3,4.4-2.9,6.8
				c-0.3,1.5-0.6,3-0.6,4.5c-0.1,1.9-0.2,3.8-0.2,5.7c-0.1,4.5-1,8.9-2.5,13.2c-1.1,3.2-2.3,6.5-3.4,9.7c-0.9,2.6-1.5,5.3-1.8,8
				c-0.4,3.3,0,6.4,1.3,9.5c0.8,2.1,1.8,4,2.9,6c0.3,0.5,0.5,1,0.7,1.5c0.5,1.1-0.2,1.9-1.2,2c-0.5,0-1.1,0-1.5-0.2
				c-2.7-1-5.4-2-7.6-4c-0.9-0.8-1.8-1.7-2.5-2.8c-1.2-1.6-2.2-3.2-3-4.9c-1-1.9-1.9-3.8-2.9-5.6c-2.3-4.4-5.8-7.5-10.3-9.6
				c-0.3-0.1-0.5-0.2-0.8-0.4c-0.4-0.2-0.6-0.5-0.5-1c0.1-0.6,0.3-1.1,0.6-1.6c0.6-1.4,1.1-2.8,1.4-4.2c0.3-1.4,0.5-2.9,0.6-4.4
				c0.1-2.3,0.1-4.6,0.3-6.9c0.1-2.6,0.4-5.1,1.2-7.5c1.2-3.6,3.2-6.7,6.2-9c2.1-1.7,4.3-3,6.6-4.3c0.3-0.2,0.6-0.4,1-0.6
				c0.6-0.4,0.9-1,0.9-1.7c0-0.6,0.1-1.2,0.1-1.8c0.1-2.8,0.4-5.6,0.7-8.3c0-0.3,0.1-0.6,0.2-0.9c0.3-0.9,0.8-1.2,1.7-1.1
				c1.2,0.1,2.3,0.2,3.5,0.2c1.8,0,3.6-0.3,5.4-0.6c2-0.4,4-0.7,6-0.8c1.2-0.1,2.4-0.1,3.6,0.2c0.1,0,0.2,0,0.2,0.1
				C122,148.4,122.9,149.7,122.9,151.9z"/>
			<path class="st31" d="M157.1,221.9c-3,0-5.9-0.6-8.7-1.6c-1.8-0.6-3.5-1.3-5.3-1.9c-0.4-0.1-0.8-0.3-1.1-0.6
				c-0.3-0.2-0.5-0.4-0.7-0.7c-0.4-0.5-0.4-1.1,0.2-1.5c0.3-0.3,0.7-0.5,1.2-0.6c1-0.2,2.1-0.5,3.1-0.6c1.3-0.2,2.7-0.2,4-0.4
				c2.6-0.4,4.8-1.6,6.6-3.5c2-2,3.5-4.4,4.7-7c1.3-3,1.9-6.1,1.9-9.3c0-2.7-0.1-5.3-0.7-8c-0.4-1.5-0.9-3.1-1.3-4.6
				c-0.3-1.1-0.5-2.2-0.7-3.3c-0.1-0.5-0.1-1,0-1.4c0.2-0.7,0.7-1,1.4-0.9c0.2,0.1,0.5,0.1,0.7,0.3c2.7,1.7,5.7,2.5,8.8,3.3
				c1.2,0.3,2.4,0.7,3.6,1.2c2.7,1,4.9,2.6,6.6,5c0.9,1.3,1.7,2.6,2.5,3.9c0.9,1.4,1.7,2.9,2.5,4.3c0.6,1,1.2,1.9,1.7,2.9
				c0.6,0.9,0.5,1.6-0.3,2.4c-0.6,0.6-1.2,1.1-1.8,1.6c-2.8,2.1-5,4.7-6.8,7.7c-0.7,1.3-1.5,2.5-2.3,3.7c-1.4,2.2-3.2,3.9-5.4,5.2
				c-3.4,2.1-7.1,3.6-11.2,4C159.2,221.8,158.2,221.8,157.1,221.9z"/>
			<path class="st31" d="M124,168.3c0.1,3.3-0.3,6.5-0.8,9.8c-0.5,2.8-0.8,5.6-0.7,8.4c0.1,2.4,0.4,4.7,1.3,7c0.8,1.9,2,3.5,3.7,4.9
				c2.1,1.7,4.5,3,7.1,4c2.2,0.9,4.6,1.5,6.9,2c2,0.5,4,1.1,6,1.9c0.6,0.3,1.2,0.6,1.8,1c0.4,0.3,0.8,0.7,1,1.1
				c0.5,0.8,0.2,1.6-0.7,2.1c-0.6,0.3-1.3,0.4-2,0.4c-1.9,0.2-3.8,0.3-5.7,0.5c-1.3,0.1-2.6,0.4-3.9,0.5c-4.2,0.5-8.4,0.5-12.5-0.9
				c-1-0.3-2-0.7-3-1.1c-1.7-0.8-3.5-1.6-5.1-2.5c-1.2-0.6-2.3-1.4-3.4-2.2c-0.6-0.5-1.2-1.1-1.7-1.7c-0.6-0.8-0.8-1.7-0.5-2.7
				c0.3-0.8,0.5-1.6,0.9-2.4c1.7-4,2.6-8.2,3.1-12.6c0.2-2.4,0.3-4.9,0.5-7.3c0.1-2.2,0.2-4.4,0.7-6.5c0.3-1.5,0.8-3,1.6-4.4
				c0.6-1.2,1.5-2.2,2.5-3.1c0.4-0.3,0.9-0.6,1.3-0.8c0.9-0.4,1.6,0.1,1.6,1.1C124,165.9,124,167.1,124,168.3z"/>
			<path class="st31" d="M125.9,173.3c0-1.1,0.3-2.1,0.6-3.1c0.5-1.4,0.9-2.9,1.2-4.4c0.2-1,0.2-2.1,0.2-3.2c0-1.6,0.1-3.2,0.5-4.8
				c0.3-1.5,0.9-3,1.7-4.3c0.2-0.3,0.3-0.5,0.6-0.8c0.5-0.5,1.1-0.7,1.7-0.4c0.4,0.1,0.7,0.3,1,0.5c0.6,0.4,1.1,0.7,1.7,1.2
				c2.7,2.2,5.7,4,8.8,5.6c1.7,0.9,3.4,1.9,5,2.9c0.4,0.2,0.8,0.6,1.2,0.8c2.5,1.8,4.1,4.1,4.7,7.2c0.3,1.9,0.7,3.7,1,5.6
				c0.3,1.6,0.7,3.2,1.3,4.7c0.3,0.8,0.5,1.5,0.8,2.3c0.1,0.3,0.2,0.7,0.2,1c0,0.8-0.5,1.3-1.3,1.2c-0.6,0-1.2-0.1-1.8-0.2
				c-1.3-0.2-2.6-0.3-3.9-0.6c-1.8-0.4-3.2-1.4-4.4-2.8c-0.8-1-1.5-2.1-2-3.3c-0.6-1.2-1.2-2.4-1.8-3.7c-0.7-1.4-1.6-2.6-2.8-3.6
				c-1.1-0.9-2.3-1.5-3.7-1.7c-1.5-0.2-3,0.3-4.3,1c-1.1,0.7-2.1,1.5-3,2.6c-0.4,0.5-0.9,1-1.4,1.5c-0.3,0.3-0.6,0.5-1,0.4
				c-0.4-0.2-0.5-0.6-0.6-1C125.9,173.7,125.9,173.4,125.9,173.3z"/>
			<path class="st31" d="M159,196c0.1,2.5-0.4,4.8-1.3,7.1c-0.3,0.8-0.8,1.6-1.4,2.3c-1,1.1-1.9,1.4-3.3,0.8c-0.7-0.3-1.3-0.6-2-1
				c-0.8-0.4-1.5-0.9-2.3-1.4c-2.1-1.5-4.5-2.3-7.1-2.5c-1.5-0.1-2.9-0.2-4.4-0.4c-1.8-0.2-3.2-1-4.3-2.5c-0.1-0.1-0.2-0.3-0.3-0.4
				c-0.2-0.5,0-0.9,0.4-1c0.2-0.1,0.5-0.1,0.7,0c1.1,0.2,2.2,0.2,3.3,0.1c1.3,0,2.5-0.1,3.8-0.2c2.4-0.1,4.6-0.7,6.7-1.9
				c0.8-0.5,1.5-1,2.2-1.6c1.2-1.1,1.9-2.5,2.4-4.1c0.2-0.5,0.3-1,0.5-1.4c0.4-0.8,1.1-1.2,1.9-0.8c1.5,0.6,2.7,1.5,3.3,3
				c0.5,1.3,0.9,2.7,1,4.2C159.1,194.8,159,195.4,159,196z"/>
			<path class="st31" d="M140.1,189.6c0.5,0,1,0,1.5-0.1c1.8-0.3,3.6-0.1,5.4-0.1c0.1,0,0.2,0,0.2,0c0.8,0.1,1.1,0.7,0.6,1.4
				c-0.8,1.1-1.8,2-3.2,2.4c-0.8,0.3-1.7,0.4-2.6,0.6c-2.3,0.4-4.6,0.7-6.9,0.8c-2.2,0.1-4.3-0.1-6.3-0.9c-0.4-0.2-0.8-0.4-1.2-0.6
				c-1.3-0.7-2.1-1.8-2.4-3.3c-0.2-1.3-0.2-2.6,0-3.9c0.5-4,2-7.5,4.5-10.6c0.5-0.6,1-1.1,1.6-1.5c0.4-0.2,0.8-0.4,1.2-0.1
				c0.4,0.3,0.4,0.8,0.3,1.2c-0.1,0.6-0.3,1.2-0.5,1.7c-0.5,1.7-1,3.4-1,5.2c0,0.8,0,1.5,0.2,2.3c0.4,2.2,1.7,3.7,3.8,4.5
				C136.9,189.3,138.5,189.6,140.1,189.6z"/>
			<path class="st31" d="M138.9,178.6c1.3,0,2.4,0.4,3.3,1c1.7,1.1,2,3.1,1.6,4.4c-0.3,0.8-0.6,1.7-1,2.5c-0.1,0.3-0.4,0.6-0.7,0.8
				c-0.6,0.5-1.2,0.6-1.8,0.1c-0.2-0.1-0.4-0.3-0.5-0.5c-1.3-1.3-2.7-2.3-4.6-2.7c-0.6-0.1-0.9-0.5-1.1-1.1c-0.2-0.7-0.1-1.3,0.3-2
				C135.5,179.5,137.1,178.7,138.9,178.6z"/>
		</g>
	</g>
	<g>
		<g>
			<path class="st13" d="M256.6,169.2c0.5,1.2,0.8,2.3,1.4,3.5c1.6,3.5,3.7,6.7,6.1,9.6c2.7,3.2,5.9,5.8,9.6,7.8
				c0.4,0.2,0.8,0.4,1.2,0.7c1,0.7,1.5,1.7,1.2,2.9c-0.3,1.2-0.8,2.4-1.4,3.4c-1.5,2.4-3,4.8-4.6,7.2c-1.1,1.6-1.8,3.2-2.2,5.1
				c-0.5,2.8-1.6,3.3-4.1,1.9c-9.2-5.2-15.4-12.7-18.3-23c-2.8-10-4.4-20.1-3.8-30.5c0.1-1.6,0-3.3,0.1-5c0.1-2.7,1.4-4,4.1-3.8
				c2,0.2,4,0.6,5.8,1.2c6.5,2.2,12.7,5.2,18,9.6c8.8,7.3,12.5,16.7,10.9,28c-0.1,0.4-0.1,0.8-0.2,1.2c-0.3,1.4-1.3,1.9-2.5,1
				c-0.4-0.3-0.7-0.6-1-0.9c-2.4-2.7-5.2-5-8.1-7.2c-4.3-3.3-7.9-7.3-11.2-11.7c-0.3-0.4-0.6-0.8-0.9-1.2
				C256.8,169.1,256.7,169.2,256.6,169.2z"/>
			<path class="st13" d="M354.1,312.3c-1.3-1.1-2.5-2.2-3.8-3.2c-1.4-1.2-2.9-2.4-4.3-3.7c-0.5-0.5-1-1-1.5-1.5
				c-1.6-2-1.8-3.6-0.4-5.8c0.6-1,1.3-1.9,2.1-2.7c1.9-2.1,3.8-4.3,5.7-6.4c1-1.2,2.3-1.6,3.8-1c0.7,0.3,1.4,0.7,2.1,1.1
				c2.7,1.8,4.8,4.1,6.6,6.7c1.8,2.6,3.1,5.4,4.2,8.3c2.1,5.3,3.6,10.8,4.6,16.5c0.1,0.5,0.2,1.1,0.2,1.6c0.2,3.2-1.3,5.4-4.4,6.3
				c-2.9,0.8-5.8,0.7-8.7-0.1c-4.4-1.3-8.5-3.3-12.2-5.9c-5.1-3.6-9.4-8-12.3-13.6c-0.3-0.7-0.7-1.3-1-2c-0.5-1.3-0.2-2.2,0.9-3
				c1.2-0.8,2.5-1,3.8-0.4c1.2,0.6,2.4,1.3,3.5,2c3.2,2.1,6.4,4.2,9.5,6.2c0.4,0.3,0.9,0.5,1.4,0.8C354,312.4,354,312.3,354.1,312.3
				z"/>
		</g>
		<g>
			<path class="st31" d="M273.3,241.6c1-2.3,2-4.6,3-6.8c1.6-3.7,3.1-7.4,4.8-11c2.3-4.9,5.7-9,10.1-12.2c0.7-0.5,1.5-1,2.3-1.4
				c2.4-1.1,4.6,0,5.2,2.5c0.3,1.3,0.4,2.6,0.4,3.9c0,3.3-0.7,6.5-1.3,9.6c-1.2,6.1-1.8,12.3-0.9,18.5c0.6,3.8,1.7,7.4,3.4,10.8
				c0.8,1.6,1.7,3.2,2.6,4.8c2.2,4,3.3,8.1,2.6,12.7c-0.5,3.4-0.5,6.8-0.9,10.2c-0.1,1.2-0.4,2.4-0.8,3.5c-0.6,1.6-1.8,2.5-3.5,2.6
				c-2.2,0.1-4.2-0.4-6.1-1.4c-2.9-1.5-5.4-3.6-7.2-6.4c-1.1-1.8-2.2-3.6-3-5.5c-2-4.7-4.3-9.3-7-13.8c-2.5-4.2-3.8-8.7-4.3-13.5
				C272.6,246.2,272.7,243.9,273.3,241.6z"/>
			<path class="st31" d="M321.8,302.7c-1.8-0.5-3.4-1.4-4.6-2.7c-2.1-2.1-4.1-4.2-6-6.5c-1.9-2.3-3.1-5-3.6-8
				c-0.5-2.8-0.9-5.6-1.2-8.5c-0.1-1.1,0-2.3,0.1-3.4c0.5-2.9,2.1-4.5,5-4.7c1.8-0.1,3.7-0.1,5.5,0.1c2.2,0.2,4.4,0.5,6.5,0.9
				c3.6,0.6,7.2,0.7,10.8,0.7c1.2,0,2.4-0.1,3.6-0.1c3.4,0.1,6.6-0.6,9.7-1.8c2.4-0.9,4.8-1.8,7.1-2.7c1-0.4,2-0.8,3-1
				c1-0.2,2.1-0.2,3.1,0c2.1,0.5,3,2.2,2.2,4.3c-0.6,1.7-1.4,3.2-2.5,4.6c-5.7,7-11.9,13.5-18.4,19.7c-2.8,2.7-6,4.8-9.6,6.4
				c-0.8,0.4-1.6,0.9-2.4,1.3C327.6,302.9,324.8,303.5,321.8,302.7z"/>
			<path class="st31" d="M377.4,244.9c-1.2,4.2-3.5,7.5-7,9.9c-2.1,1.5-4.5,2.7-7,3.5c-4.9,1.6-9.5,3.6-14,6.1
				c-2.5,1.4-5.2,2.3-8.1,2.8c-0.7,0.1-1.5,0.2-2.2,0.2c-2.6-0.2-3.8-2.6-2.4-4.8c0.5-0.7,1.1-1.4,1.8-2c1.1-0.9,2.3-1.7,3.4-2.5
				c1.4-1,2.9-1.9,4.4-2.9c7.3-5,11.7-11.9,13.2-20.6c0.7-3.8,0.8-7.7,1-11.5c0.1-1.3,0.2-2.7,0.5-4c0.6-2.3,2.2-3.5,4.6-3.6
				c2.1-0.1,3.9,0.6,5.4,2.2c1.6,1.7,2.9,3.7,3.5,5.9c1.2,4.6,2.3,9.2,3.3,13.9C378.3,239.9,377.9,242.5,377.4,244.9z"/>
			<path class="st31" d="M325.5,190.8c4,1.4,8.4,1.5,12.8,2c3.5,0.4,7,0.7,10.3,1.9c4,1.4,7.4,3.8,9.9,7.3c1.4,2,2.4,4.4,3.6,6.6
				c0.2,0.4,0.3,0.9,0.4,1.3c0.5,2.7-1.6,4.5-4.1,3.4c-1.7-0.7-3.4-1.8-5-2.8c-1.4-0.9-2.8-2-4.1-3c-2.8-2.1-5.9-3.5-9.2-4.7
				c-4.7-1.7-9.4-1.1-13.8,1c-4.8,2.3-8.8,5.6-12.4,9.3c-1.6,1.6-3,3.5-4.5,5.2c-0.7,0.8-1.4,1.8-2.2,2.4c-1.4,1.1-3,0.7-3.7-0.9
				c-0.3-0.7-0.5-1.4-0.6-2.2c-0.5-4.4-0.8-8.8-0.4-13.2c0.4-3.7,1.6-7,4.1-9.8c4-4.6,9-6.3,15-5
				C322.8,190.1,324.1,190.4,325.5,190.8z"/>
			<path class="st31" d="M268.5,218.8c1.5-4.9,3.5-9.7,5.9-14.4c1-1.9,1.9-3.8,3-5.7c2.3-4,5.8-6.1,10.3-6.5c0.2,0,0.4,0,0.6,0
				c4.3,0,8.7,0,13-0.1c2.5,0,4.3,1.4,2.4,4.4c-1.9,3-3.8,6-6.6,8.3c-1.5,1.2-3.1,2.4-4.9,3.2c-6.8,3-11.6,8-15,14.5
				c-2,3.7-3.6,7.6-5.2,11.5c-0.4,0.9-0.7,1.8-1.2,2.6c-0.4,0.8-1,1.2-2,1.1c-0.8-0.1-1.3-0.7-1.4-1.5c-0.2-1.7-0.5-3.5-0.5-5.2
				C267.1,226.8,267.4,222.8,268.5,218.8z"/>
			<path class="st31" d="M334.8,257.2c-4.3-1.4-7.3-2.9-10.2-4.7c-2.5-1.6-4.6-3.7-6.2-6.2c-2.1-3.1-3.7-6.5-5-10
				c-1.3-3.6-1.7-7.3-1.1-11.1c0.5-2.8,1.6-5.3,3.3-7.5c3.1-4,6.7-7.5,10.8-10.5c0.9-0.6,1.9-1.2,2.9-1.5c2.2-0.6,3.8,0.9,3.3,3.2
				c-0.2,1.1-0.8,2.2-1.3,3.2c-1.1,1.9-2.4,3.7-3.5,5.6c-2.8,4.5-3.7,9.4-2.7,14.7c0.6,3,1.4,5.9,3,8.6c2.9,5,6.9,8.5,12.5,10.2
				c0.7,0.2,1.4,0.5,2.1,0.9c1.6,1,1.7,2.7,0.3,3.9c-0.4,0.4-1,0.7-1.6,0.9C338.8,257.4,336.3,257.8,334.8,257.2z"/>
			<path class="st31" d="M300.7,229.7c0.5-1.3,1.1-2.7,1.7-4c0.2-0.5,0.5-0.9,0.8-1.3c1.8-2.2,4.1-2,5.4,0.5
				c0.5,1.1,0.8,2.3,1.1,3.4c0.4,1.8,0.8,3.6,1.1,5.4c1.5,7.8,5.2,14.2,11.3,19.3c1.5,1.3,3,2.5,4.5,3.8c1,0.9,2,2,2.9,3
				c0.4,0.5,0.8,1,1.1,1.6c0.9,1.8,0.2,3.5-1.6,4.1c-0.8,0.3-1.8,0.5-2.6,0.4c-3.9-0.3-7.8-0.6-11.7-1c-3.3-0.3-5.9-2-7.7-4.7
				c-4.5-6.6-6.9-13.8-7-21.8C299.9,235.6,300.1,232.7,300.7,229.7z"/>
			<path class="st31" d="M343.7,244.6c0.8-2.5,1.5-4.4,2.1-6.4c1.4-4.7,1.5-9.4-0.2-14c-0.3-0.8-0.6-1.6-1-2.3
				c-1.1-2.3-2.8-4-5.2-4.9c-1.1-0.5-2.2-0.9-3.3-1.4c-2.1-0.9-2.5-2.5-1.1-4.3c0.9-1.2,2.1-1.9,3.5-2.2c3.6-0.7,7-0.3,9.9,2.1
				c1.2,1,2.5,1.8,3.8,2.7c0.2,0.2,0.5,0.4,0.7,0.5c2.8,2,4,4.7,3.1,8.1c-0.3,1.2-0.1,2.3,0.3,3.5c3,8,0.8,16.7-6.5,21.7
				c-0.5,0.4-1,0.8-1.5,1.2c-0.5,0.4-1,0.8-1.6,1.1c-1.4,0.7-2.7,0.1-3.2-1.5c-0.1-0.5-0.2-1-0.1-1.5
				C343.4,246,343.6,245.1,343.7,244.6z"/>
			<path class="st31" d="M345,236.7c-1,2.1-1.8,4.4-2.9,6.4c-1.5,2.7-4.2,3.4-6.9,1.9c-0.9-0.5-1.7-1.1-2.4-1.8
				c-0.8-0.8-1.6-1.7-2.1-2.7c-1.4-2.5-2.7-5-3.9-7.6c-0.7-1.4-0.5-2.3,0.4-2.8c0.9-0.5,1.8-0.3,2.7,0.9c1.3,1.8,3.1,2.7,5.3,3.1
				c2.2,0.4,4-0.3,5.3-2c0.5-0.6,0.9-1.3,1.4-2c0.5-0.7,1-1.3,2-1.1c1,0.2,1.5,0.9,1.5,1.8c0.1,1.2,0,2.5-0.1,3.7
				c-0.1,0.7-0.3,1.4-0.5,2C344.9,236.7,345,236.7,345,236.7z"/>
			<path class="st31" d="M337.1,218.6c2.3,0.6,3.7,1.7,4.7,3.4c0.3,0.4,0.5,0.9,0.5,1.4c0.2,1.1,0.2,2.2-0.7,3.1
				c-0.9,0.9-2,0.7-3.1,0.3c-0.9-0.3-1.8-0.7-2.7-1c-2-0.7-4-0.8-5.9,0.4c-0.7,0.4-1.4,0.4-2.1-0.1c-0.6-0.5-0.8-1.2-0.6-1.9
				c0.1-0.4,0.2-0.8,0.4-1.1C329.4,219.8,333.8,217.8,337.1,218.6z"/>
			<path class="st31" d="M336,226.9c0.7,0.5,1.6,0.9,2.2,1.5c1.3,1.3,0.6,3.3-1.2,3.7c-0.5,0.1-1.2,0.1-1.6-0.1
				c-1.3-0.6-2.5-1.4-3.7-2.2c-0.6-0.4-0.9-1.1-0.6-1.9c0.3-0.8,0.9-1.1,1.6-1.1C333.7,226.8,334.8,226.9,336,226.9z"/>
		</g>
	</g>
</g>
</svg>
