<svg xmlns="http://www.w3.org/2000/svg" height="583pt" version="1.1" viewBox="0 -4 583.37712 583" width="583pt">
<g id="surface1">
<path d="M 194.964844 257.660156 L 212.546875 270.84375 C 219.324219 275.929688 227.945312 277.886719 236.253906 276.226562 L 313.382812 260.796875 C 325.503906 258.335938 334.863281 248.664062 336.917969 236.464844 L 342.378906 203.703125 C 344.433594 191.628906 338.847656 179.535156 328.324219 173.273438 L 294.984375 153.28125 C 290.351562 150.527344 285.054688 149.082031 279.667969 149.101562 L 253.6875 149.101562 C 245.777344 149.078125 238.191406 152.21875 232.621094 157.828125 L 218.582031 171.867188 C 215.558594 174.882812 214.808594 179.5 216.714844 183.320312 L 221.53125 192.941406 L 209.0625 197.089844 C 202.785156 199.199219 197.386719 203.324219 193.703125 208.824219 L 188.042969 217.3125 C 179.277344 230.46875 182.316406 248.179688 194.964844 257.660156 Z M 204.566406 228.324219 L 210.222656 219.847656 C 211.453125 218.011719 213.253906 216.636719 215.347656 215.933594 L 226.085938 212.351562 C 228.460938 227.234375 244.730469 238.453125 265.3125 238.453125 C 287.578125 238.453125 305.023438 225.367188 305.023438 208.667969 C 305.023438 191.96875 287.582031 178.886719 265.3125 178.886719 C 256.441406 178.78125 247.714844 181.132812 240.09375 185.675781 L 237.683594 180.839844 L 246.617188 171.90625 C 248.484375 170.019531 251.03125 168.957031 253.6875 168.957031 L 279.667969 168.957031 C 281.464844 168.957031 283.230469 169.445312 284.769531 170.378906 L 318.109375 190.371094 C 321.605469 192.472656 323.464844 196.496094 322.792969 200.519531 L 317.34375 233.28125 C 316.648438 237.34375 313.527344 240.558594 309.492188 241.382812 L 232.363281 256.808594 C 229.582031 257.359375 226.699219 256.710938 224.421875 255.023438 L 206.839844 241.828125 C 202.601562 238.652344 201.601562 232.710938 204.566406 228.324219 Z M 245.457031 208.667969 C 245.457031 204.617188 253.191406 198.738281 265.3125 198.738281 C 277.433594 198.738281 285.167969 204.617188 285.167969 208.667969 C 285.167969 212.71875 277.433594 218.59375 265.3125 218.59375 C 253.191406 218.59375 245.457031 212.71875 245.457031 208.667969 Z M 245.457031 208.667969 " style=" stroke:none;fill-rule:nonzero;fill:rgb(0%,0%,0%);fill-opacity:1;" />
<path d="M 407.203125 453.957031 L 421.242188 439.917969 L 441.09375 459.769531 L 427.054688 473.808594 Z M 407.203125 453.957031 " style=" stroke:none;fill-rule:nonzero;fill:rgb(0%,0%,0%);fill-opacity:1;" />
<path d="M 15.886719 334.324219 L 65.46875 371.484375 C 60.503906 394.882812 52.652344 469.835938 142.484375 505.765625 C 161.789062 513.929688 182.476562 518.308594 203.433594 518.671875 C 237.730469 519.246094 270.234375 503.378906 290.875 475.980469 L 346.242188 468.039062 C 354.734375 466.820312 362.609375 462.902344 368.699219 456.859375 L 376.34375 449.214844 C 387.332031 522.003906 449.820312 575.863281 523.429688 575.992188 C 528.914062 575.992188 533.359375 571.546875 533.359375 566.066406 L 533.359375 546.210938 C 533.257812 496.414062 508.304688 449.953125 466.84375 422.371094 C 485.808594 429.554688 506.671875 429.945312 525.894531 423.484375 L 576.195312 406.714844 C 581.398438 404.984375 584.210938 399.363281 582.480469 394.160156 C 581.910156 392.453125 580.890625 390.929688 579.523438 389.761719 L 546.671875 361.554688 C 521.382812 339.769531 486.03125 333.96875 455.109375 346.535156 L 443.355469 351.269531 L 478.339844 281.300781 C 482.105469 273.796875 483.386719 265.289062 481.992188 257.007812 L 478.359375 235.167969 C 481.832031 235.617188 485.332031 235.863281 488.832031 235.910156 C 510.039062 235.957031 530.554688 228.40625 546.671875 214.625 L 579.53125 186.460938 C 583.695312 182.890625 584.175781 176.625 580.605469 172.460938 C 579.4375 171.09375 577.914062 170.074219 576.207031 169.503906 L 525.902344 152.734375 C 506.804688 146.417969 486.128906 146.75 467.238281 153.667969 C 508.519531 126.035156 533.316406 79.648438 533.359375 29.972656 L 533.359375 10.113281 C 533.359375 4.632812 528.914062 0.1875 523.429688 0.1875 C 459.832031 0.328125 403.332031 40.804688 382.734375 100.972656 C 379.476562 100.554688 376.175781 100.554688 372.917969 100.972656 L 314.441406 109.390625 C 302.972656 103.359375 290.421875 99.664062 277.511719 98.527344 L 244.214844 71.855469 C 233.355469 63.085938 217.851562 63.085938 206.996094 71.855469 L 176.222656 96.503906 C 174.164062 98.148438 171.542969 98.910156 168.925781 98.621094 L 109.792969 92.039062 C 93.449219 90.199219 78.707031 101.964844 76.871094 118.308594 C 76.746094 119.414062 76.683594 120.527344 76.6875 121.640625 L 76.6875 125.839844 L 29.539062 186.449219 C 14.792969 205.382812 12.796875 231.304688 24.476562 252.269531 L 26.363281 255.675781 L 8.710938 277.746094 C -4.996094 294.867188 -2.226562 319.855469 14.894531 333.5625 C 15.222656 333.824219 15.554688 334.082031 15.886719 334.332031 Z M 149.914062 487.359375 C 82.851562 460.554688 80.011719 409.832031 83.160156 385.003906 C 86.824219 387.195312 90.714844 388.988281 94.765625 390.34375 C 131.1875 402.078125 157.238281 410.050781 176.003906 415.492188 L 176.003906 431.050781 C 176.003906 444.324219 182.636719 456.722656 193.683594 464.089844 L 202.699219 470.09375 C 209.210938 474.429688 216.863281 476.734375 224.6875 476.714844 L 263.613281 476.714844 C 246.140625 492.292969 210.054688 511.464844 149.871094 487.359375 Z M 513.265625 539.269531 L 461.492188 480.101562 L 446.601562 493.183594 L 499.605469 553.851562 C 440.144531 542.582031 396.484375 491.535156 394.558594 431.046875 L 406.285156 419.273438 C 465.492188 429.527344 509.800781 479.265625 513.175781 539.261719 Z M 462.636719 364.980469 C 486.691406 355.226562 514.179688 359.734375 533.855469 376.664062 L 553.394531 393.421875 L 519.71875 404.640625 C 498.300781 411.777344 474.753906 408.074219 456.558594 394.714844 L 432.632812 377.101562 Z M 443.019531 409.417969 C 435.058594 406.011719 426.816406 403.3125 418.386719 401.355469 L 422.058594 393.988281 Z M 519.621094 171.539062 L 553.296875 182.757812 L 533.757812 199.515625 C 517.535156 213.375 495.820312 218.953125 474.925781 214.625 L 468.253906 174.625 C 484.34375 167.042969 502.734375 165.9375 519.621094 171.539062 Z M 499.507812 22.386719 L 446.472656 82.992188 L 461.363281 96.078125 L 513.234375 36.800781 C 511 78.382812 488.855469 116.335938 453.761719 138.746094 C 451.558594 136.722656 449.136719 134.953125 446.542969 133.464844 L 401.371094 107.652344 C 416.363281 63.648438 453.835938 31.085938 499.507812 22.386719 Z M 375.726562 120.667969 C 380.097656 120.050781 384.550781 120.902344 388.386719 123.089844 L 436.734375 150.71875 C 441.917969 153.667969 445.5 158.800781 446.472656 164.6875 L 462.414062 260.292969 C 463.101562 264.429688 462.457031 268.683594 460.578125 272.433594 L 397.578125 398.464844 C 396.621094 400.371094 395.367188 402.109375 393.863281 403.617188 L 354.660156 442.824219 C 351.617188 445.851562 347.679688 447.820312 343.429688 448.441406 L 285.851562 456.652344 C 284.921875 456.792969 283.980469 456.859375 283.042969 456.863281 L 224.6875 456.863281 C 220.765625 456.867188 216.933594 455.707031 213.675781 453.527344 L 204.664062 447.519531 C 199.152344 443.847656 195.835938 437.671875 195.816406 431.050781 L 195.816406 421.121094 C 205.453125 424.355469 215.460938 426.355469 225.601562 427.078125 C 246.179688 427.078125 277.960938 398.289062 289.214844 387.367188 L 308.328125 387.367188 C 314.769531 387.355469 321.035156 385.269531 326.195312 381.410156 L 394.261719 330.363281 C 400.117188 325.964844 404.152344 319.566406 405.589844 312.382812 L 413.796875 271.382812 C 413.875 270.980469 413.976562 270.585938 414.105469 270.199219 L 430.367188 221.40625 C 433.382812 212.371094 431.90625 202.441406 426.398438 194.671875 L 388.570312 141.714844 C 382.964844 133.890625 373.925781 129.246094 364.300781 129.246094 L 338.199219 129.246094 C 337.375 128.253906 336.519531 127.332031 335.6875 126.386719 Z M 85.621094 186.222656 C 86.101562 184.078125 86.433594 181.90625 86.613281 179.71875 C 93.363281 168.3125 101.695312 157.917969 111.351562 148.84375 C 114.820312 145.183594 120.484375 144.707031 124.519531 147.730469 L 138.992188 158.582031 C 130.40625 166.21875 125.746094 177.335938 126.324219 188.8125 C 126.324219 231.34375 156.792969 272.460938 158.09375 274.191406 C 158.597656 274.859375 159.179688 275.460938 159.828125 275.988281 L 209.46875 315.699219 C 210.015625 316.136719 210.609375 316.511719 211.234375 316.828125 C 212.941406 317.671875 253.398438 337.726562 285.167969 337.726562 C 312.457031 337.726562 326 313.253906 331.46875 299.523438 C 342.597656 296.660156 352.0625 289.347656 357.640625 279.300781 L 383.171875 233.347656 C 384.453125 231.042969 384.761719 228.324219 384.035156 225.792969 C 376.167969 199.117188 365.375 173.398438 351.851562 149.101562 L 364.300781 149.101562 C 367.5 149.101562 370.507812 150.644531 372.371094 153.25 L 410.195312 206.203125 C 412.050781 208.792969 412.546875 212.117188 411.535156 215.140625 L 395.273438 263.921875 C 394.871094 265.101562 394.539062 266.300781 394.28125 267.515625 L 386.082031 308.5 C 385.59375 310.878906 384.253906 312.996094 382.308594 314.453125 L 334.207031 350.632812 C 340.472656 340.796875 344.097656 329.511719 344.730469 317.871094 L 324.878906 317.871094 C 324.878906 318.199219 324.332031 350.433594 283.300781 367.507812 L 277.34375 367.507812 C 257.054688 363.4375 193.109375 332.234375 132.796875 280.550781 C 76.855469 232.613281 83.019531 200.101562 85.621094 186.222656 Z M 185.890625 198.738281 C 185.945312 174.625 202.957031 153.878906 226.59375 149.101562 L 227.585938 148.902344 C 230.164062 148.386719 232.429688 146.867188 233.890625 144.683594 L 251.304688 118.554688 C 262.730469 117.152344 296.761719 115.136719 317.886719 136.265625 C 341.625 160.003906 359.238281 212.707031 363.824219 227.382812 L 340.335938 269.664062 C 334.378906 280.417969 320.832031 284.304688 310.078125 278.351562 C 307.324219 276.824219 304.921875 274.730469 303.035156 272.207031 L 287.152344 284.121094 C 292.734375 291.566406 300.640625 296.941406 309.617188 299.398438 C 305.484375 309.585938 296.09375 316.679688 285.164062 317.875 C 260.464844 317.875 226.910156 302.335938 221.011719 299.496094 L 173.292969 261.285156 C 169.011719 255.257812 146.179688 221.445312 146.179688 188.8125 C 145.660156 183.042969 147.863281 177.359375 152.136719 173.445312 C 158.433594 169.296875 165.917969 167.328125 173.441406 167.847656 C 168.628906 177.4375 166.097656 188.011719 166.035156 198.742188 L 185.890625 198.742188 Z M 99.847656 114.246094 C 101.949219 112.363281 104.753906 111.464844 107.5625 111.773438 L 166.691406 118.34375 C 174.539062 119.195312 182.402344 116.917969 188.582031 112 L 219.355469 87.351562 C 222.984375 84.449219 228.140625 84.449219 231.765625 87.351562 L 246.5 99.144531 C 244.8125 99.394531 243.75 99.601562 243.472656 99.664062 C 240.890625 100.175781 238.621094 101.695312 237.15625 103.882812 L 219.527344 130.328125 C 207.113281 133.484375 195.800781 139.976562 186.8125 149.101562 C 177.789062 147.574219 168.566406 147.613281 159.554688 149.210938 L 136.410156 131.847656 C 124.269531 122.675781 107.164062 124.171875 96.800781 135.3125 L 96.542969 135.601562 L 96.542969 121.640625 C 96.527344 118.816406 97.730469 116.121094 99.847656 114.246094 Z M 45.246094 198.632812 L 76.683594 158.175781 L 76.683594 158.640625 C 67.828125 170.289062 66.757812 175.222656 66.757812 178.824219 C 66.625 180.070312 66.417969 181.304688 66.140625 182.527344 C 63.164062 198.300781 55.222656 240.207031 119.859375 295.625 C 167.316406 336.328125 227.804688 372.496094 263.515625 383.890625 C 248.613281 396.617188 232.828125 407.21875 225.601562 407.21875 C 222.375 407.21875 203.839844 404.640625 100.820312 371.480469 C 81.878906 365.472656 70.292969 346.382812 73.707031 326.804688 C 75.917969 313.449219 73.554688 299.734375 66.996094 287.890625 L 41.832031 242.617188 C 34.027344 228.605469 35.363281 211.28125 45.226562 198.628906 L 45.246094 198.628906 Z M 24.207031 290.15625 L 36.785156 274.429688 L 49.601562 297.519531 C 53.988281 305.441406 55.574219 314.609375 54.101562 323.539062 C 53.375 328.273438 53.234375 333.078125 53.683594 337.847656 L 27.800781 318.4375 C 19.03125 311.859375 17.25 299.414062 23.832031 290.640625 C 23.953125 290.476562 24.082031 290.316406 24.207031 290.15625 Z M 24.207031 290.15625 " style=" stroke:none;fill-rule:nonzero;fill:rgb(0%,0%,0%);fill-opacity:1;" />
</g>
</svg>