<svg id="Capa_1" enable-background="new 0 0 512 512" height="512" viewBox="0 0 512 512" width="512" xmlns="http://www.w3.org/2000/svg"><g><path d="m379.008 7.5h-258.008c-16.569 0-30 13.431-30 30v439.998h300v-469.998z" fill="#f4eee0"/><path d="m391 7.5h-30v437.094c0 8.287-6.72 15.003-15.006 15l-254.994-.094v45h11.992c0-9.818 9.434-17.434 19.731-14.276 6.186 1.897 10.269 7.802 10.269 14.272v.005h11.002c0-9.818 9.434-17.434 19.731-14.276 6.186 1.897 10.269 7.802 10.269 14.272v.005h11.003c0-9.818 9.432-17.433 19.73-14.277 6.186 1.896 10.27 7.802 10.27 14.272v.005h11.003c0-9.818 9.434-17.434 19.731-14.276 6.186 1.897 10.269 7.802 10.269 14.272v.005h11.002c0-9.818 9.434-17.434 19.731-14.276 6.186 1.897 10.269 7.802 10.269 14.272v.005h11.002c0-9.818 9.434-17.434 19.731-14.276 6.186 1.897 10.269 7.802 10.269 14.272v.005h11.003c0-9.818 9.434-17.434 19.731-14.276 6.186 1.897 10.269 7.802 10.269 14.272v.005h11.993v-341.039c16.569 0 30-13.431 30-30v-95.967c0-16.569-13.431-30-30-30z" fill="#d3cdbf"/><g><path d="m248.5 390.984v-36.532c3.375 1.542 6.267 4.099 8.181 7.406 2.073 3.586 6.664 4.808 10.248 2.734 3.585-2.075 4.81-6.663 2.734-10.248-4.623-7.99-12.367-13.592-21.163-15.653v-2.187c0-4.142-3.357-7.5-7.5-7.5s-7.5 3.358-7.5 7.5v2.169c-14.649 3.408-25.6 16.561-25.6 32.232 0 5.817 1.533 11.542 4.434 16.556 4.723 8.164 12.984 11.87 21.166 14.561v36.534c-3.375-1.542-6.268-4.099-8.182-7.406-2.074-3.586-6.665-4.808-10.248-2.735-3.585 2.075-4.81 6.663-2.734 10.248 4.623 7.99 12.368 13.592 21.164 15.654v2.187c0 4.142 3.357 7.5 7.5 7.5s7.5-3.358 7.5-7.5v-2.169c14.649-3.408 25.6-16.561 25.6-32.232 0-5.819-1.534-11.545-4.437-16.56-4.723-8.162-12.983-11.868-21.163-14.559zm-23.182-11.035c-1.582-2.734-2.418-5.861-2.418-9.044 0-7.303 4.356-13.594 10.6-16.452v31.603c-3.661-1.542-6.626-3.419-8.182-6.107zm23.182 58.605v-31.604c3.66 1.541 6.625 3.417 8.181 6.105 1.582 2.734 2.419 5.862 2.419 9.046 0 7.305-4.357 13.596-10.6 16.453z"/><path d="m182.154 130.964h20.767c4.143 0 7.5-3.358 7.5-7.5s-3.357-7.5-7.5-7.5h-20.767c-4.143 0-7.5 3.358-7.5 7.5s3.358 7.5 7.5 7.5z"/><path d="m154.458 130.964c4.143 0 7.5-3.358 7.5-7.5s-3.357-7.5-7.5-7.5h-20.772c-4.143 0-7.5 3.358-7.5 7.5s3.357 7.5 7.5 7.5z"/><path d="m348.405 115.964h-20.776c-4.143 0-7.5 3.358-7.5 7.5s3.357 7.5 7.5 7.5h20.776c4.143 0 7.5-3.358 7.5-7.5s-3.357-7.5-7.5-7.5z"/><path d="m279.154 130.964h20.775c4.143 0 7.5-3.358 7.5-7.5s-3.357-7.5-7.5-7.5h-20.775c-4.143 0-7.5 3.358-7.5 7.5s3.358 7.5 7.5 7.5z"/><path d="m230.674 130.964h20.778c4.143 0 7.5-3.358 7.5-7.5s-3.357-7.5-7.5-7.5h-20.778c-4.143 0-7.5 3.358-7.5 7.5s3.357 7.5 7.5 7.5z"/><path d="m391 0h-270c-20.678 0-37.5 16.822-37.5 37.5v467c0 1.989.79 3.897 2.197 5.303 1.407 1.407 3.314 2.197 5.303 2.197h11.992c4.143 0 7.5-3.358 7.5-7.5 0-4.881 4.647-8.758 10.032-7.106 2.925.897 4.968 3.817 4.968 7.106 0 1.989.79 3.897 2.197 5.303 1.406 1.407 3.313 2.197 5.303 2.197h11.002c4.143 0 7.5-3.358 7.5-7.5 0-4.881 4.65-8.758 10.033-7.106 2.899.889 4.932 3.766 4.967 7.015-.021 1.75.571 3.47 1.7 4.846 1.425 1.738 3.553 2.745 5.8 2.745h11.004c4.143 0 7.5-3.358 7.5-7.5 0-4.874 4.638-8.761 10.032-7.106 2.925.896 4.968 3.816 4.968 7.106 0 1.989.79 3.897 2.197 5.303 1.406 1.407 3.313 2.197 5.303 2.197h11.002c4.143 0 7.5-3.358 7.5-7.5 0-9.82 15-10.111 15 0 0 1.989.79 3.897 2.197 5.303 1.407 1.407 3.314 2.197 5.303 2.197h11.002c4.143 0 7.5-3.358 7.5-7.5 0-4.889 4.658-8.755 10.033-7.106 2.899.889 4.932 3.766 4.967 7.015-.021 1.75.571 3.47 1.7 4.846 1.425 1.738 3.553 2.745 5.8 2.745h11.003c4.143 0 7.5-3.358 7.5-7.5 0-4.874 4.642-8.761 10.032-7.106 2.925.897 4.968 3.817 4.968 7.106 0 1.989.79 3.897 2.197 5.303 1.406 1.407 3.313 2.197 5.303 2.197h11.003c4.143 0 7.5-3.358 7.5-7.5 0-4.881 4.647-8.758 10.032-7.106 2.925.897 4.968 3.817 4.968 7.106 0 4.142 3.357 7.5 7.5 7.5h11.992c4.143 0 7.5-3.358 7.5-7.5v-334.288c17.096-3.484 30-18.635 30-36.745v-95.967c0-20.678-16.822-37.5-37.5-37.5zm22.5 133.466c0 9.777-6.271 18.114-15 21.21v-117.176c0-4.142-3.357-7.5-7.5-7.5s-7.5 3.358-7.5 7.5v78.464h-7.496c-4.143 0-7.5 3.358-7.5 7.5s3.357 7.5 7.5 7.5h7.496v362.256c-2.739-4.786-7.173-8.514-12.562-10.167-7.086-2.174-14.482-.953-20.298 3.346-3.12 2.307-5.554 5.369-7.122 8.83-2.572-5.743-7.461-10.299-13.583-12.176-7.087-2.174-14.482-.953-20.298 3.346-3.119 2.307-5.554 5.369-7.121 8.829-2.573-5.742-7.462-10.298-13.584-12.175-7.085-2.173-14.482-.953-20.297 3.347-3.12 2.307-5.554 5.368-7.122 8.829-2.572-5.742-7.462-10.298-13.584-12.175-7.082-2.174-14.482-.953-20.296 3.346-3.12 2.307-5.554 5.369-7.122 8.829-2.573-5.743-7.463-10.299-13.586-12.176-7.084-2.171-14.48-.952-20.296 3.348-3.119 2.307-5.553 5.369-7.121 8.829-2.572-5.743-7.461-10.299-13.583-12.176-7.089-2.173-14.484-.953-20.298 3.347-3.12 2.307-5.554 5.368-7.122 8.829-2.572-5.742-7.462-10.298-13.584-12.175-7.082-2.174-14.482-.953-20.296 3.346-2.522 1.864-4.596 4.222-6.126 6.885v-362.32h7.496c4.143 0 7.5-3.358 7.5-7.5s-3.357-7.5-7.5-7.5h-7.495v-78.466c0-12.407 10.094-22.5 22.5-22.5h270c12.406 0 22.5 10.093 22.5 22.5z"/><path d="m266.812 299.003h-130.831c-4.143 0-7.5 3.358-7.5 7.5s3.357 7.5 7.5 7.5h130.831c4.143 0 7.5-3.358 7.5-7.5s-3.357-7.5-7.5-7.5z"/><path d="m346.817 174.006h-210.836c-4.143 0-7.5 3.358-7.5 7.5s3.357 7.5 7.5 7.5h210.836c4.143 0 7.5-3.358 7.5-7.5s-3.357-7.5-7.5-7.5z"/><path d="m346.817 204.006h-210.836c-4.143 0-7.5 3.358-7.5 7.5s3.357 7.5 7.5 7.5h210.836c4.143 0 7.5-3.358 7.5-7.5s-3.357-7.5-7.5-7.5z"/><path d="m346.817 236.505h-210.836c-4.143 0-7.5 3.358-7.5 7.5s3.357 7.5 7.5 7.5h210.836c4.143 0 7.5-3.358 7.5-7.5s-3.357-7.5-7.5-7.5z"/><path d="m346.817 269.003h-210.836c-4.143 0-7.5 3.358-7.5 7.5s3.357 7.5 7.5 7.5h210.836c4.143 0 7.5-3.358 7.5-7.5s-3.357-7.5-7.5-7.5z"/></g></g></svg>