<svg id="Capa_1" enable-background="new 0 0 512 512" height="512" viewBox="0 0 512 512" width="512" xmlns="http://www.w3.org/2000/svg"><g><path d="m110.159 353.735c-12.819 0-24.87 4.996-33.934 14.068-18.699 18.718-18.699 49.174 0 67.892 9.063 9.072 21.114 14.068 33.934 14.068s24.87-4.996 33.933-14.068c18.701-18.718 18.701-49.174.001-67.892-9.064-9.072-21.114-14.068-33.934-14.068zm12.71 60.756c-3.396 3.399-7.91 5.271-12.71 5.271s-9.313-1.872-12.71-5.271c-7.019-7.026-7.019-18.459 0-25.485 3.396-3.399 7.91-5.271 12.71-5.271s9.313 1.872 12.71 5.271c7.02 7.026 7.02 18.459 0 25.485z"/><path d="m479.741 323.794c-.001 0-.001 0 0 0-20.808-20.827-48.473-32.297-77.9-32.297-8.959 0-17.753 1.069-26.242 3.136l-38.83-38.867 126.596-126.719c32.087-32.118 32.087-84.377.001-116.496l-5.465-5.469c-4.562-4.567-10.64-7.082-17.114-7.082-6.473 0-12.551 2.515-17.113 7.083l-167.674 167.836-167.674-167.836c-4.562-4.567-10.64-7.083-17.113-7.083-6.474 0-12.552 2.516-17.114 7.083l-5.465 5.469c-32.086 32.118-32.086 84.378.001 116.496l126.596 126.719-38.829 38.867c-8.489-2.067-17.283-3.136-26.243-3.136-29.428 0-57.093 11.47-77.899 32.297 0 0 0 0-.001 0-42.941 42.984-42.941 112.924.001 155.908 20.806 20.827 48.471 32.297 77.899 32.297s57.093-11.47 77.899-32.297c28.173-28.199 37.862-68 29.07-104.18l38.872-38.909 38.871 38.908c-8.792 36.18.898 75.981 29.07 104.18 20.807 20.828 48.472 32.298 77.9 32.298s57.093-11.47 77.899-32.297c42.943-42.984 42.943-112.925.001-155.909zm-409.884-215.949c-20.406-20.426-20.406-53.663 0-74.089l1.355-1.356 163.584 163.743-38.364 38.401zm96.979 350.655c-15.14 15.154-35.268 23.5-56.677 23.5s-41.537-8.346-56.677-23.5c-31.262-31.292-31.262-82.209.001-113.503h-.001c15.14-15.154 35.268-23.5 56.677-23.5s41.537 8.346 56.677 23.5c31.262 31.293 31.263 82.21 0 113.503zm21.223-134.706c-6.559-6.565-13.8-12.198-21.563-16.838l274.291-274.557 1.354 1.356c20.407 20.427 20.407 53.663.001 74.089l-237.302 237.533c-4.577-7.702-10.168-14.963-16.781-21.583zm89.143-8.403 38.364-38.401 29.938 29.966c-7.762 4.64-15.004 10.273-21.563 16.838-6.614 6.62-12.205 13.881-16.781 21.583zm181.316 143.109c-15.14 15.154-35.268 23.5-56.677 23.5s-41.537-8.346-56.677-23.5c-31.263-31.292-31.262-82.209 0-113.502 15.14-15.154 35.268-23.5 56.677-23.5s41.537 8.346 56.677 23.5h-.001c31.262 31.292 31.262 82.209.001 113.502z"/><path d="m401.841 353.735c-12.819 0-24.87 4.996-33.933 14.068-18.701 18.718-18.701 49.174-.001 67.892 9.063 9.072 21.114 14.068 33.934 14.068s24.87-4.996 33.934-14.068c18.699-18.718 18.699-49.174 0-67.892-9.064-9.072-21.115-14.068-33.934-14.068zm12.71 60.756c-3.396 3.399-7.91 5.271-12.71 5.271s-9.313-1.872-12.71-5.271c-7.02-7.026-7.02-18.459 0-25.485 3.396-3.399 7.91-5.271 12.71-5.271s9.313 1.872 12.71 5.271c7.018 7.026 7.018 18.459 0 25.485z"/></g></svg>