<svg id="Capa_1" enable-background="new 0 0 511.189 511.189" height="512" viewBox="0 0 511.189 511.189" width="512" xmlns="http://www.w3.org/2000/svg"><g><g><g><g><path d="m284.012 280.638-12.681-122.845 6.45-35.11-72.1-11.78-26.79 63.98-21.92 53.18c-7.31 17.73-7.37 37.62-.19 55.39l28.94 71.55v107.35h110.83l.23-107.35c.16-.31.31-.62.46-.93z" fill="#ffeee6"/></g><path d="m286.484 294.358-2.472-13.72-12.681-122.845 2.734-14.879c-.904-.068-1.813-.115-2.734-.121h-.13c-7.521 0-14.933 2.132-21.147 6.367-10.841 7.388-16.963 19.097-16.963 31.743v60.063c.001 29.487 23.905 53.392 53.393 53.392z" fill="#ffdfcf"/><path d="m224.478 361.042c0-3.989-.769-7.94-2.264-11.638l-26.676-65.952c-7.18-17.77-7.12-37.66.19-55.39l21.92-53.18 24.308-58.053-36.275-5.927-26.79 63.98-21.92 53.18c-7.31 17.73-7.37 37.62-.19 55.39l28.94 71.55v107.35h32.322 6.435 72.074l.2-93.275c-.659-.052-34.854-.094-64.37-.12-4.369-.004-7.904-3.547-7.904-7.915z" fill="#ffdfcf"/><path d="m363.078 161.52c7.542-4.355 10.126-13.999 5.772-21.541l-21.397-37.06c-1.23-2.13-.386-4.855 1.831-5.919l5.041-2.417c15.511-7.439 21.195-26.653 12.228-41.334-8.968-14.681-28.658-18.395-42.358-7.991l-3.159 2.399c-2.025 1.538-4.94.95-6.211-1.252l-16.62-28.787c-4.355-7.542-13.999-10.127-21.541-5.772l-35.291 20.376c-2.683 1.549-6.118.44-7.388-2.386l-1.882-4.186c-7.159-15.926-26.136-22.689-41.753-14.88-15.192 7.596-19.964 26.994-10.029 40.771l4.724 6.55c1.812 2.513 1.056 6.042-1.628 7.591l-35.292 20.376c-7.542 4.355-10.126 13.999-5.772 21.541l70.645 122.361c4.355 7.542 13.999 10.126 21.541 5.772z" fill="#86e8d0"/><path d="m317.804 494.853v-81.353c0-13.572-11.002-24.574-24.574-24.574h-103.264c-13.572 0-24.574 11.002-24.574 24.574v81.353c0 4.88 3.956 8.836 8.836 8.836h134.739c4.881 0 8.837-3.956 8.837-8.836z" fill="#b5adb6"/><path d="m206.661 458.376c0-24.048 19.495-43.542 43.542-43.542h67.601v-1.334c0-13.572-11.002-24.574-24.574-24.574h-103.264c-13.572 0-24.574 11.002-24.574 24.574v81.353c0 4.88 3.956 8.836 8.836 8.836h32.432v-45.313z" fill="#a79ba7"/></g><path d="m315.134 189.201-.958-11.802c-1.841-22.447-20.209-39.474-42.727-39.605h-.247c-11.514 0-22.339 4.485-30.482 12.629-2.644 2.644-4.902 5.572-6.746 8.713-3.519 5.997-12.232 5.903-15.709-.119l-45.029-77.992c-1.503-2.603-2.161-5.455-2.092-8.255l-23.018 13.289c-7.542 4.355-10.126 13.999-5.772 21.541l70.645 122.361c4.355 7.542 13.999 10.126 21.541 5.772l31.915-18.426z" fill="#5de1c4"/><path d="m271.332 157.792c11.98.07 21.93 9.28 22.91 21.24l6.81 83.84 1.56 4.52c4.13 11.98 6.18 24.45 6.18 36.88 0 17.11-3.87 34.15-11.55 49.8-27.145 0-49.15-22.005-49.15-49.15v-32.95-91.07c0-6.38 2.59-12.16 6.77-16.34s9.96-6.77 16.34-6.77z" fill="#ffeee6"/></g><g><path d="m375.346 136.229-19.628-33.996 1.851-.888c9.303-4.461 16.315-12.693 19.242-22.586s1.521-20.616-3.857-29.42c-5.377-8.803-14.275-14.95-24.413-16.862-10.137-1.91-20.664.569-28.881 6.808l-.197.15-14.761-25.567c-6.415-11.11-20.676-14.931-31.787-8.517l-33.117 19.121-.853-1.896c-4.308-9.583-12.13-16.804-22.027-20.331-9.896-3.526-20.522-2.881-29.92 1.817-9.212 4.605-15.906 12.983-18.366 22.983-2.461 10.001-.417 20.528 5.607 28.882l3.255 4.515-33.117 19.121c-5.383 3.107-9.233 8.125-10.842 14.129-1.609 6.003-.783 12.274 2.324 17.657l6 10.392c2.073 3.587 6.66 4.815 10.245 2.745 3.587-2.071 4.816-6.658 2.745-10.245l-6-10.392c-1.104-1.913-1.397-4.142-.826-6.275.572-2.134 1.94-3.917 3.854-5.021l35.291-20.375c3.113-1.797 5.33-4.843 6.084-8.358.753-3.514-.021-7.201-2.123-10.115l-4.724-6.551c-3.446-4.78-4.616-10.803-3.208-16.525 1.407-5.722 5.237-10.515 10.509-13.15 5.709-2.854 12.163-3.246 18.176-1.104 6.013 2.143 10.766 6.529 13.383 12.352l1.88 4.183c1.473 3.278 4.279 5.792 7.698 6.897 3.422 1.104 7.167.708 10.281-1.089l35.291-20.375c3.95-2.281 9.018-.921 11.297 3.026l16.619 28.788c1.683 2.913 4.539 4.965 7.838 5.629 3.295.666 6.726-.121 9.404-2.156l3.159-2.399c4.916-3.733 10.964-5.157 17.027-4.014 6.064 1.144 11.177 4.675 14.394 9.942 3.218 5.267 4.025 11.427 2.274 17.345s-5.779 10.647-11.345 13.316l-5.04 2.417c-2.934 1.407-5.168 3.997-6.13 7.105-.962 3.109-.58 6.508 1.047 9.326l21.396 37.06c2.279 3.949.922 9.016-3.026 11.296l-56.848 32.821-.766-9.419c-1.283-15.775-14.686-28.133-30.514-28.133-16.88 0-30.613 13.733-30.613 30.614v42.672l-9.799 5.657c-1.913 1.104-4.142 1.397-6.274.826-2.134-.572-3.917-1.94-5.021-3.853l-48.596-84.17c-2.07-3.587-6.66-4.816-10.245-2.745-3.587 2.071-4.816 6.658-2.745 10.245l13.602 23.56-21.475 52.106c-8.103 19.662-8.175 41.348-.201 61.062l6.115 15.122c1.181 2.919 3.989 4.69 6.956 4.69.936 0 1.888-.176 2.809-.549 3.84-1.553 5.694-5.925 4.142-9.765l-6.115-15.123c-6.493-16.054-6.435-33.712.164-49.723l17.073-41.425 25.527 44.214c3.107 5.383 8.125 9.233 14.129 10.842 2.005.537 4.039.803 6.061.803 4.032 0 8.012-1.058 11.597-3.127l2.299-1.327v31.071c0 4.142 3.357 7.5 7.5 7.5s7.5-3.358 7.5-7.5v-91.063c0-8.609 7.004-15.614 15.613-15.614 8.072 0 14.908 6.303 15.563 14.349l6.816 83.84c.051.626.181 1.243.386 1.837l1.557 4.516c9.215 26.724 7.231 56.541-5.442 81.806-.523 1.044-.796 2.195-.796 3.363v26.421h-96.062v-24.405c0-2.305-.438-4.558-1.303-6.695l-10.074-24.909c-1.554-3.839-5.923-5.697-9.766-4.141-3.84 1.553-5.693 5.925-4.141 9.765l10.074 24.909c.139.342.209.703.209 1.071v26.642c-11.892 4.697-20.331 16.297-20.331 29.838v90.189c0 4.142 3.357 7.5 7.5 7.5s7.5-3.358 7.5-7.5v-90.189c0-9.415 7.659-17.074 17.074-17.074h103.263c9.415 0 17.074 7.66 17.074 17.074v16.826c0 4.142 3.357 7.5 7.5 7.5s7.5-3.358 7.5-7.5v-16.826c0-13.802-8.764-25.595-21.019-30.109v-26.641c13.757-28.502 15.746-61.854 5.419-91.804l-1.249-3.622-4.629-56.934 63.003-36.375c11.11-6.415 14.931-20.674 8.516-31.786z"/><path d="m317.804 454.788c-4.143 0-7.5 3.358-7.5 7.5v41.401c0 4.142 3.357 7.5 7.5 7.5s7.5-3.358 7.5-7.5v-41.401c0-4.142-3.358-7.5-7.5-7.5z"/></g></g></svg>