<svg id="Capa_1" enable-background="new 0 0 512 512" height="512" viewBox="0 0 512 512" width="512" xmlns="http://www.w3.org/2000/svg"><g><g><path d="m504.5 103.19v304.22c0 18.29-14.83 33.13-33.13 33.13h-430.74c-18.3 0-33.13-14.84-33.13-33.13v-304.22c0-17.53 14.21-31.73 31.73-31.73h433.54c17.52 0 31.73 14.2 31.73 31.73z" fill="#edf5fa"/><path d="m472.77 71.46h-21.156c17.52 0 31.73 14.2 31.73 31.73v304.22c0 18.29-14.83 33.13-33.13 33.13h21.156c18.3 0 33.13-14.84 33.13-33.13v-304.22c0-17.53-14.21-31.73-31.73-31.73z" fill="#d0e7f2"/><path d="m504.5 103.19v14.57h-497v-14.57c0-17.53 14.21-31.73 31.73-31.73h433.54c17.52 0 31.73 14.2 31.73 31.73z" fill="#07b2cd"/><path d="m504.5 103.19v14.57h-497v-14.57c0-17.53 14.21-31.73 31.73-31.73h433.54c17.52 0 31.73 14.2 31.73 31.73z" fill="#30dde5"/><path d="m472.77 71.46h-21.156c17.52 0 31.73 14.2 31.73 31.73v14.57h21.156v-14.57c0-17.53-14.21-31.73-31.73-31.73z" fill="#02c7dd"/><path d="m467.98 177.35v263.19h-423.96v-263.19c0-10.6 8.58-19.19 19.18-19.19h385.6c10.6 0 19.18 8.59 19.18 19.19z" fill="#6cf5c2"/><path d="m448.8 158.16h-22.156c10.6 0 19.18 8.59 19.18 19.19v263.19h22.156v-263.19c0-10.6-8.58-19.19-19.18-19.19z" fill="#05e39c"/><path d="m434.05 214.9v41.3c0 9.61-7.79 17.4-17.4 17.4h-321.3c-9.61 0-17.4-7.79-17.4-17.4v-41.3c0-9.61 7.79-17.4 17.4-17.4h321.3c9.61 0 17.4 7.79 17.4 17.4z" fill="#fe5ca7"/><path d="m128.477 374.614h-34.191c-9.022 0-16.335-7.313-16.335-16.335v-25.327c0-9.022 7.313-16.335 16.335-16.335h34.191c9.022 0 16.335 7.313 16.335 16.335v25.327c0 9.022-7.313 16.335-16.335 16.335z" fill="#bd80e1"/><path d="m128.477 316.617h-19.865c9.021 0 16.335 7.313 16.335 16.335v25.327c0 9.021-7.313 16.335-16.335 16.335h19.865c9.021 0 16.335-7.313 16.335-16.335v-25.327c0-9.021-7.313-16.335-16.335-16.335z" fill="#af66da"/><path d="m434.05 214.9v41.3c0 9.61-7.79 17.4-17.4 17.4h-271.838l62.6-76.1h209.238c9.61 0 17.4 7.79 17.4 17.4z" fill="#bd80e1"/><path d="m416.65 197.5h-21.847c9.61 0 17.4 7.79 17.4 17.4v41.3c0 9.61-7.79 17.4-17.4 17.4h21.847c9.61 0 17.4-7.79 17.4-17.4v-41.3c0-9.61-7.79-17.4-17.4-17.4z" fill="#af66da"/></g><g><path d="m472.77 63.96h-433.54c-21.631 0-39.23 17.599-39.23 39.23v14.57 289.65c0 22.403 18.227 40.63 40.63 40.63h430.74c22.403 0 40.63-18.227 40.63-40.63v-289.65-14.57c0-21.631-17.599-39.23-39.23-39.23zm-457.77 39.23c0-13.36 10.87-24.23 24.23-24.23h433.54c13.36 0 24.23 10.87 24.23 24.23v7.07h-482zm456.37 329.85h-419.85v-255.69c0-6.446 5.24-11.69 11.681-11.69h385.6c6.44 0 11.681 5.244 11.681 11.69v228.575c0 4.142 3.357 7.5 7.5 7.5s7.5-3.358 7.5-7.5v-228.575c0-14.717-11.969-26.69-26.681-26.69h-385.601c-14.712 0-26.681 11.973-26.681 26.69v255.356c-12.185-1.973-21.519-12.563-21.519-25.296v-282.15h482v282.15c0 14.132-11.497 25.63-25.63 25.63z"/><path d="m462.246 87.732c-4.075 0-7.379 3.304-7.379 7.379s3.304 7.379 7.379 7.379 7.379-3.304 7.379-7.379c0-4.076-3.304-7.379-7.379-7.379z"/><circle cx="438.986" cy="95.111" r="7.379"/><path d="m270.948 87.611h-29.896c-4.143 0-7.5 3.358-7.5 7.5s3.357 7.5 7.5 7.5h29.896c4.143 0 7.5-3.358 7.5-7.5s-3.357-7.5-7.5-7.5z"/><path d="m324.547 290.117c-4.143 0-7.5 3.358-7.5 7.5v112.923c0 4.142 3.357 7.5 7.5 7.5s7.5-3.358 7.5-7.5v-112.923c0-4.142-3.358-7.5-7.5-7.5z"/><path d="m289.233 312.47h-112.779c-4.143 0-7.5 3.358-7.5 7.5s3.357 7.5 7.5 7.5h112.779c4.143 0 7.5-3.358 7.5-7.5s-3.357-7.5-7.5-7.5z"/><path d="m289.233 340.455h-25.649c-4.143 0-7.5 3.358-7.5 7.5s3.357 7.5 7.5 7.5h25.649c4.143 0 7.5-3.358 7.5-7.5s-3.357-7.5-7.5-7.5z"/><path d="m176.454 355.455h51.69c4.143 0 7.5-3.358 7.5-7.5s-3.357-7.5-7.5-7.5h-51.69c-4.143 0-7.5 3.358-7.5 7.5s3.358 7.5 7.5 7.5z"/><path d="m434.049 312.47h-75.515c-4.143 0-7.5 3.358-7.5 7.5s3.357 7.5 7.5 7.5h75.515c4.143 0 7.5-3.358 7.5-7.5s-3.358-7.5-7.5-7.5z"/><path d="m434.049 340.455h-75.515c-4.143 0-7.5 3.358-7.5 7.5s3.357 7.5 7.5 7.5h75.515c4.143 0 7.5-3.358 7.5-7.5s-3.358-7.5-7.5-7.5z"/><path d="m289.233 368.44h-112.779c-4.143 0-7.5 3.358-7.5 7.5s3.357 7.5 7.5 7.5h112.779c4.143 0 7.5-3.358 7.5-7.5s-3.357-7.5-7.5-7.5z"/><path d="m289.233 396.425h-211.282c-4.143 0-7.5 3.358-7.5 7.5s3.357 7.5 7.5 7.5h211.282c4.143 0 7.5-3.358 7.5-7.5s-3.357-7.5-7.5-7.5z"/><path d="m94.286 382.114h34.19c13.143 0 23.835-10.692 23.835-23.835v-25.327c0-13.143-10.692-23.835-23.835-23.835h-34.19c-13.143 0-23.835 10.692-23.835 23.835v25.327c0 13.143 10.693 23.835 23.835 23.835zm-8.835-49.162c0-4.872 3.963-8.835 8.835-8.835h34.19c4.872 0 8.835 3.963 8.835 8.835v25.327c0 4.872-3.963 8.835-8.835 8.835h-34.19c-4.872 0-8.835-3.963-8.835-8.835z"/><path d="m394.316 368.637c-2.93-2.929-7.678-2.929-10.607 0s-2.929 7.678 0 10.606l11.255 11.254-11.255 11.254c-2.929 2.929-2.929 7.677 0 10.606 2.345 2.164 6.713 3.401 10.607 0l16.558-16.557c2.129-2.236 3.394-6.825 0-10.606z"/><path d="m416.65 190h-20.359c-4.143 0-7.5 3.358-7.5 7.5s3.357 7.5 7.5 7.5h20.359c5.459 0 9.899 4.441 9.899 9.9v41.3c0 5.459-4.44 9.9-9.899 9.9h-255.958l50.262-61.1h150.332c4.143 0 7.5-3.358 7.5-7.5s-3.357-7.5-7.5-7.5h-265.936c-13.729 0-24.899 11.17-24.899 24.9v41.3c0 13.73 11.17 24.9 24.899 24.9h321.3c13.729 0 24.899-11.17 24.899-24.9v-41.3c.001-13.73-11.169-24.9-24.899-24.9zm-331.2 66.2v-41.3c0-5.459 4.44-9.9 9.899-9.9h96.182l-50.261 61.1h-45.92c-5.459 0-9.9-4.441-9.9-9.9z"/></g></g></svg>