<svg id="Layer_1" enable-background="new 0 0 512 512" height="512" viewBox="0 0 512 512" width="512" xmlns="http://www.w3.org/2000/svg"><g><g><path d="m482 429.5h-452v-312.417c0-16.569 13.431-30 30-30h392c16.569 0 30 13.431 30 30z" fill="#506d90"/><path d="m452 87.083h-30c16.569 0 30 13.432 30 30v312.417h30v-312.417c0-16.569-13.431-30-30-30z" fill="#455f7e"/><path d="m12.5 429.5h487c2.761 0 5 2.239 5 5v34.549c0 19.579-15.872 35.451-35.451 35.451h-426.098c-19.579 0-35.451-15.872-35.451-35.451v-34.549c0-2.761 2.239-5 5-5z" fill="#455f7e"/><path d="m499.5 429.5h-30c2.761 0 5 2.239 5 5v34.549c0 19.579-15.872 35.451-35.451 35.451h30c19.579 0 35.451-15.872 35.451-35.451v-34.549c0-2.761-2.239-5-5-5z" fill="#405972"/><path d="m60 380.5v-259.417c0-2.209 1.791-4 4-4h384c2.209 0 4 1.791 4 4v259.417c0 2.209-1.791 4-4 4h-384c-2.209 0-4-1.791-4-4z" fill="#ecf5ff"/><path d="m448 117.083h-30c2.209 0 4 1.791 4 4v259.417c0 2.209-1.791 4-4 4h30c2.209 0 4-1.791 4-4v-259.417c0-2.209-1.791-4-4-4z" fill="#dbeafd"/><path d="m288.955 459.5h-65.911c-5.523 0-10-4.477-10-10v-20h85.911v20c0 5.523-4.477 10-10 10z" fill="#405972"/><g><path d="m327.321 78.821c0 23.917-11.772 45.084-29.838 58.023-11.688 8.371-24.93 9.337-40.403 9.337-4.924 0-10.81 3.463-15.453 2.512-32.5-6.65-56.947-35.406-56.947-69.872-.001-39.39 31.931-71.321 71.32-71.321s71.321 31.931 71.321 71.321z" fill="#bcd7fd"/><path d="m256 7.5c-5.147 0-10.162.558-15 1.594 32.185 6.891 56.321 35.485 56.321 69.727s-24.136 62.835-56.321 69.727c4.838 1.036 10.932-2.368 16.079-2.368 15.473 0 28.715-.966 40.403-9.337 18.066-12.939 29.838-34.106 29.838-58.023.001-39.389-31.931-71.32-71.32-71.32z" fill="#9bc6fd"/><path d="m258.85 94.6h-5.7c-21.33 0-38.621 17.291-38.621 38.62v3.607c11.688 8.371 25.998 13.314 41.471 13.314s29.783-4.943 41.471-13.314v-3.607c0-21.329-17.291-38.62-38.621-38.62z" fill="#f7e07f"/><path d="m260.394 149.994c7.39-.403 18.509-2.602 28.047-7.664 3.152-1.615 6.17-3.455 9.03-5.503v-3.607c0-8.559-2.789-16.464-7.502-22.867-9.506 19.239-27.424 33.579-48.961 38.193.033.007 7.663 1.842 19.386 1.448z" fill="#f0d16f"/><circle cx="256" cy="68.193" fill="#f2ccbc" r="26.406"/></g><g><path d="m232.641 283.179c0 23.917-11.772 45.084-29.838 58.023-11.688 8.371-24.829 10.138-40.302 10.138-4.924 0-10.912 2.661-15.554 1.711-32.5-6.65-56.947-35.406-56.947-69.872 0-39.389 31.931-71.321 71.321-71.321s71.32 31.932 71.32 71.321z" fill="#bcd7fd"/><path d="m161.321 211.858c-5.147 0-10.162.558-15 1.594 32.185 6.891 56.321 35.485 56.321 69.727s-24.136 62.836-56.321 69.727c4.838 1.036 11.034-1.567 16.181-1.567 15.473 0 28.614-1.767 40.302-10.138 18.066-12.939 29.838-34.106 29.838-58.023-.001-39.388-31.932-71.32-71.321-71.32z" fill="#9bc6fd"/><path d="m164.171 298.958h-5.7c-21.33 0-38.621 17.291-38.621 38.62v3.607c11.688 8.371 25.998 13.314 41.471 13.314s29.783-4.943 41.471-13.314v-3.607c-.001-21.329-17.292-38.62-38.621-38.62z" fill="#dd8793"/><path d="m146.328 352.904c14.203 3.042 31.339 2.031 47.427-6.213 3.154-1.616 6.174-3.457 9.036-5.506v-3.607c0-8.559-2.789-16.465-7.502-22.867-9.505 19.24-27.424 33.58-48.961 38.193z" fill="#d5707e"/><circle cx="161.321" cy="272.552" fill="#f2ccbc" r="26.406"/></g><g><path d="m422 283.179c0 23.917-11.772 45.084-29.838 58.023-11.688 8.371-24.484 10.545-39.957 10.545-5.146 0-11.691 2.208-16.528 1.172-32.185-6.891-56.318-35.497-56.318-69.74 0-39.389 31.931-71.321 71.321-71.321s71.32 31.932 71.32 71.321z" fill="#bcd7fd"/><path d="m350.679 211.858c-5.147 0-10.162.558-15 1.594 32.185 6.892 56.321 35.485 56.321 69.727s-24.136 62.836-56.321 69.727c4.838 1.036 9.853-1.098 15-1.098 15.473 0 29.795-2.236 41.482-10.607 18.067-12.938 29.839-34.105 29.839-58.022 0-39.389-31.931-71.321-71.321-71.321z" fill="#9bc6fd"/><path d="m353.529 298.958h-5.7c-21.33 0-38.621 17.291-38.621 38.62v3.607c11.688 8.371 25.998 13.314 41.471 13.314s29.783-4.943 41.471-13.314v-3.607c0-21.329-17.291-38.62-38.621-38.62z" fill="#bfe69f"/><path d="m335.687 352.904c14.204 3.042 31.339 2.031 47.427-6.213 3.154-1.616 6.174-3.457 9.036-5.506v-3.607c0-8.559-2.789-16.465-7.502-22.867-9.506 19.24-27.424 33.58-48.961 38.193z" fill="#a4d9a6"/><circle cx="350.679" cy="272.552" fill="#f2ccbc" r="26.406"/><g fill="#ecad9a"><path d="m350.679 246.146c-4.811 0-9.318 1.293-13.203 3.542 7.891 4.566 13.203 13.092 13.203 22.865s-5.313 18.298-13.203 22.865c3.885 2.248 8.392 3.542 13.203 3.542 14.584 0 26.406-11.823 26.406-26.406s-11.822-26.408-26.406-26.408z"/><path d="m161.321 246.146c-4.811 0-9.318 1.293-13.203 3.542 7.891 4.566 13.203 13.092 13.203 22.865s-5.313 18.298-13.203 22.865c3.885 2.248 8.392 3.542 13.203 3.542 14.584 0 26.406-11.823 26.406-26.406s-11.823-26.408-26.406-26.408z"/><path d="m256 41.787c-4.811 0-9.318 1.293-13.203 3.542 7.89 4.566 13.203 13.092 13.203 22.864s-5.313 18.298-13.203 22.865c3.885 2.248 8.392 3.542 13.203 3.542 14.584 0 26.406-11.823 26.406-26.406s-11.822-26.407-26.406-26.407z"/></g></g></g><path d="m499.5 422h-10v-304.92c0-20.678-16.822-37.5-37.5-37.5h-117.191c.113-11.477-2.186-22.566-6.849-32.967-1.695-3.78-6.131-5.472-9.912-3.776-3.78 1.693-5.471 6.131-3.777 9.911 3.682 8.216 5.549 16.987 5.549 26.072 0 16.374-6.204 31.323-16.377 42.633-3.364-12.738-12.055-23.325-23.534-29.244 6.171-6.144 9.997-14.641 9.997-24.016 0-18.696-15.21-33.906-33.906-33.906s-33.906 15.21-33.906 33.906c0 9.375 3.826 17.872 9.997 24.016-11.479 5.919-20.17 16.506-23.534 29.244-10.173-11.31-16.377-26.259-16.377-42.633-.001-35.19 28.629-63.82 63.82-63.82 14.175 0 27.594 4.547 38.807 13.149 3.287 2.522 7.994 1.901 10.516-1.385 2.521-3.287 1.901-7.995-1.385-10.516-13.856-10.629-30.433-16.248-47.938-16.248-43.759 0-79.242 35.833-78.809 79.58h-117.191c-20.678 0-37.5 16.822-37.5 37.5v304.92h-10c-6.893 0-12.5 5.607-12.5 12.5v34.549c0 23.683 19.268 42.951 42.951 42.951h426.098c23.683 0 42.951-19.268 42.951-42.951v-34.549c0-6.893-5.607-12.5-12.5-12.5zm-243.5-372.713c10.425 0 18.906 8.481 18.906 18.906s-8.481 18.907-18.906 18.907-18.906-8.481-18.906-18.906 8.481-18.907 18.906-18.907zm-2.85 52.813h5.7c17.025 0 30.893 13.743 31.11 30.717-9.843 6.213-21.485 9.825-33.96 9.825s-24.117-3.612-33.96-9.825c.217-16.975 14.085-30.717 31.11-30.717zm94.679 204.358h5.7c17.025 0 30.893 13.743 31.11 30.717-9.843 6.213-21.485 9.825-33.96 9.825s-24.117-3.612-33.96-9.825c.217-16.974 14.085-30.717 31.11-30.717zm-16.056-33.906c0-10.425 8.481-18.906 18.906-18.906s18.906 8.481 18.906 18.906-8.481 18.906-18.906 18.906-18.906-8.481-18.906-18.906zm42.816 24.016c6.171-6.144 9.997-14.641 9.997-24.016 0-18.696-15.21-33.906-33.906-33.906s-33.906 15.21-33.906 33.906c0 9.375 3.826 17.872 9.997 24.016-11.479 5.919-20.17 16.506-23.534 29.244-10.173-11.31-16.377-26.259-16.377-42.632 0-35.191 28.63-63.821 63.821-63.821s63.821 28.63 63.821 63.821c0 16.374-6.203 31.322-16.377 42.632-3.366-12.738-12.057-23.325-23.536-29.244zm-102.703-11.568h-31.772c.697-30.946-16.639-58.262-42.456-71.731l38.765-58.11c6.262 1.611 12.818 2.483 19.577 2.483s13.315-.871 19.577-2.483l38.765 58.11c-25.792 13.477-43.193 40.726-42.456 71.731zm-113.415 21.458h5.7c17.025 0 30.893 13.743 31.11 30.717-9.843 6.213-21.485 9.825-33.96 9.825s-24.117-3.612-33.96-9.825c.217-16.974 14.085-30.717 31.11-30.717zm-16.056-33.906c0-10.425 8.481-18.906 18.906-18.906s18.906 8.481 18.906 18.906-8.481 18.906-18.906 18.906-18.906-8.481-18.906-18.906zm42.815 24.016c6.171-6.144 9.997-14.641 9.997-24.016 0-18.696-15.21-33.906-33.906-33.906s-33.906 15.21-33.906 33.906c0 9.375 3.826 17.872 9.997 24.016-11.479 5.919-20.17 16.506-23.534 29.244-10.175-11.31-16.378-26.259-16.378-42.632 0-35.191 28.63-63.821 63.821-63.821s63.821 28.63 63.821 63.821c0 16.374-6.203 31.322-16.377 42.632-3.364-12.738-12.056-23.325-23.535-29.244zm-147.73-179.488c0-12.406 10.093-22.5 22.5-22.5h118.772c1.061 5.204 2.636 10.222 4.672 15h-119.444c-6.341 0-11.5 5.159-11.5 11.5v128.609c0 4.143 3.358 7.5 7.5 7.5s7.5-3.357 7.5-7.5v-125.109h124.375c7.709 10.774 18.123 19.503 30.053 25.276l-38.481 57.685c-7.025-2.059-14.445-3.183-22.126-3.183-43.462 0-78.821 35.359-78.821 78.821 0 43.671 36.009 78.82 78.821 78.82 36.898 0 69.191-26.086 77.011-62h35.337c7.766 35.836 40.3 62 77.011 62 43.023 0 78.821-35.492 78.821-78.82 0-43.462-35.359-78.821-78.821-78.821-7.682 0-15.101 1.125-22.126 3.183l-38.481-57.685c11.952-5.769 22.334-14.489 30.053-25.276h124.374v252.42h-377v-92.311c0-4.143-3.358-7.5-7.5-7.5s-7.5 3.357-7.5 7.5v95.811c0 6.341 5.159 11.5 11.5 11.5h384c6.341 0 11.5-5.159 11.5-11.5v-259.42c0-6.341-5.159-11.5-11.5-11.5h-119.444c2.035-4.778 3.61-9.796 4.672-15h118.772c12.407 0 22.5 10.094 22.5 22.5v304.92h-437zm253.955 319.92v12.5c0 1.379-1.122 2.5-2.5 2.5h-65.91c-1.378 0-2.5-1.121-2.5-2.5v-12.5zm205.545 32.049c0 15.412-12.539 27.951-27.951 27.951h-426.098c-15.412 0-27.951-12.539-27.951-27.951v-32.049h190.545v12.5c0 9.649 7.851 17.5 17.5 17.5h65.91c9.649 0 17.5-7.851 17.5-17.5v-12.5h190.545z"/></g></svg>